<svg xmlns="http://www.w3.org/2000/svg" width="24" height="24" fill="none" viewBox="0 0 24 24">
    <path fill="#2C3F64" fill-rule="evenodd" d="M11.983 7.323L6.366 12.94l-.264 2.956 2.977-.271 5.6-5.606-2.696-2.696zm5.983-.594l-2.695-2.694-1.948 1.948 2.695 2.696 1.948-1.95zM5.091 17.996c-.03.003-.06.004-.09.004-.265 0-.52-.104-.708-.293-.21-.21-.316-.502-.289-.797l.38-4.171c.041-.457.243-.888.568-1.213l8.996-8.997c.702-.704 1.976-.67 2.716.07l2.738 2.738h.001c.766.767.796 1.984.068 2.714l-8.997 8.997c-.325.326-.755.527-1.213.569l-4.17.379zM5 20h14c.55 0 1 .45 1 1s-.45 1-1 1H5c-.55 0-1-.45-1-1s.45-1 1-1z" clip-rule="evenodd"/>
</svg>
