<svg xmlns="http://www.w3.org/2000/svg" width="24" height="24" fill="none" viewBox="0 0 24 24">
    <path fill="#2C3F64" fill-rule="evenodd" d="M19 18.256c0 .41-.334.744-.744.744H17v-2h2v1.256zm-14 0V17h2v2H5.744c-.41 0-.744-.334-.744-.744zM5.744 5H7v2H5V5.744c0-.41.334-.744.744-.744zM19 5.744V7h-2V5h1.256c.41 0 .744.334.744.744zM17 15h2v-2h-2v2zm0-4h2V9h-2v2zM5 15h2v-2H5v2zm0-4h2V9H5v2zm13.256-8H5.744C4.231 3 3 4.232 3 5.744v12.512C3 19.769 4.231 21 5.744 21h12.512C19.769 21 21 19.769 21 18.256V5.744C21 4.232 19.769 3 18.256 3z" clip-rule="evenodd"/>
</svg>
