<svg xmlns="http://www.w3.org/2000/svg" width="24" height="24" fill="none" viewBox="0 0 24 24">
    <path fill="#2C3F64" fill-rule="evenodd" d="M8 10c.828 0 1.5-.672 1.5-1.5S8.828 7 8 7s-1.5.672-1.5 1.5S7.172 10 8 10zm10 9H6.561l7.005-5.845c.246-.209.692-.208.933-.001L19 16.994V18c0 .552-.448 1-1 1zM6 5h12c.552 0 1 .448 1 1v8.364l-3.203-2.732c-.99-.842-2.539-.842-3.52-.006L5 17.698V6c0-.552.448-1 1-1zm12-2H6C4.346 3 3 4.346 3 6v12c0 1.654 1.346 3 3 3h12c1.654 0 3-1.346 3-3V6c0-1.654-1.346-3-3-3z" clip-rule="evenodd"/>
</svg>
