<svg xmlns="http://www.w3.org/2000/svg" width="24" height="24" fill="none" viewBox="0 0 24 24">
    <path fill="#2C3F64" fill-rule="evenodd" d="M17 4h2c.55 0 1 .45 1 1v14c0 .55-.45 1-1 1h-2c-.55 0-1-.45-1-1s.45-1 1-1h1V6h-1c-.55 0-1-.45-1-1s.45-1 1-1zm-6.6 3.2c.444-.33 1.069-.24 1.4.2l3 4c.26.346.268.82.018 1.175l-2.814 4c-.195.277-.504.425-.82.425-.197 0-.398-.059-.573-.182-.452-.318-.561-.942-.243-1.394l1.718-2.442c-.014.002-.026.006-.039.01-.015.004-.03.008-.047.008H4c-.552 0-1-.448-1-1 0-.553.448-1 1-1h8l-1.8-2.4c-.331-.442-.242-1.069.2-1.4z" clip-rule="evenodd"/>
</svg>
