<svg xmlns="http://www.w3.org/2000/svg" width="24" height="24" fill="none" viewBox="0 0 24 24">
    <path fill="#2C3F64" fill-rule="evenodd" d="M10 5c1.103 0 2 .897 2 2s-.897 2-2 2-2-.897-2-2 .897-2 2-2zm0 6c2.206 0 4-1.794 4-4s-1.794-4-4-4-4 1.794-4 4 1.794 4 4 4zm0 2c-3.859 0-7 3.14-7 7 0 .552.447 1 1 1 .553 0 1-.448 1-1 0-2.757 2.243-5 5-5s5 2.243 5 5c0 .552.447 1 1 1 .553 0 1-.448 1-1 0-3.86-3.141-7-7-7zm10-7h1c.55 0 1 .45 1 1s-.45 1-1 1h-1v1c0 .55-.45 1-1 1s-1-.45-1-1V8h-1c-.55 0-1-.45-1-1s.45-1 1-1h1V5c0-.55.45-1 1-1s1 .45 1 1v1z" clip-rule="evenodd"/>
</svg>
