<svg xmlns="http://www.w3.org/2000/svg" width="24" height="24" fill="none" viewBox="0 0 24 24">
    <path fill="#2C3F64" fill-rule="evenodd" d="M11.5 14.6l2.809-2.6L11.5 9.4v5.2zm4.48-1.421l-3.642 3.37c-.319.296-.734.45-1.157.45-.233 0-.47-.047-.693-.144-.61-.266-.988-.835-.988-1.485V8.63c0-.65.378-1.22.988-1.484.626-.275 1.353-.155 1.851.306l3.641 3.37c.331.305.52.735.52 1.178 0 .444-.189.873-.52 1.179zM12 1.999C6.486 2 2 6.488 2 12c0 5.515 4.486 10 10 10s10-4.485 10-10c0-5.512-4.486-10-10-10z" clip-rule="evenodd"/>
</svg>
