<svg xmlns="http://www.w3.org/2000/svg" width="24" height="24" fill="none" viewBox="0 0 24 24">
    <path fill="#AAAEBD" fill-opacity=".72" fill-rule="evenodd" d="M7.726 12.667H12c.237 0 .463.1.62.276.158.176.233.411.208.646l-.374 3.458 3.82-5.714H12c-.237 0-.462-.1-.62-.276-.158-.176-.234-.411-.208-.646l.374-3.458-3.82 5.714zm3.533 8.5c-.095 0-.19-.016-.285-.05-.36-.132-.585-.492-.543-.873l.64-5.91H6.168c-.308 0-.59-.17-.735-.44-.145-.272-.129-.602.042-.857l6.574-9.833c.213-.32.616-.452.977-.32.36.13.586.492.544.873l-.64 5.91h4.904c.308 0 .59.17.735.44.145.272.129.6-.042.856l-6.574 9.834c-.158.236-.421.37-.693.37z" clip-rule="evenodd"/>
</svg>
