<svg xmlns="http://www.w3.org/2000/svg" width="42" height="42" fill="none" viewBox="0 0 42 42">
    <path fill="#2C3F64" fill-rule="evenodd" d="M9.652 28l2.065-2.069c.661-.661 1.025-1.54 1.025-2.474v-8.185c0-2.374 1.033-4.644 2.835-6.223 1.817-1.592 4.13-2.292 6.54-1.976 4.072.541 7.144 4.223 7.144 8.567v7.817c0 .934.364 1.813 1.023 2.473L32.351 28h-22.7zM24.5 32.097C24.5 33.67 22.898 35 21 35s-3.5-1.33-3.5-2.903V31.5h7v.597zm11.411-5.483l-3.151-3.157V15.64c0-6.092-4.379-11.267-10.185-12.035-3.364-.448-6.759.58-9.305 2.812-2.562 2.244-4.029 5.47-4.029 8.855l-.001 8.185-3.152 3.157c-.82.822-1.064 2.046-.62 3.119.447 1.074 1.484 1.767 2.646 1.767h5.886v.597c0 3.531 3.14 6.403 7 6.403s7-2.872 7-6.403V31.5h5.885c1.162 0 2.198-.693 2.642-1.766.447-1.074.205-2.3-.616-3.12z" clip-rule="evenodd"/>
</svg>
