<svg xmlns="http://www.w3.org/2000/svg" width="24" height="24" fill="none" viewBox="0 0 24 24">
    <path fill="#2C3F64" fill-rule="evenodd" d="M11.821 15.506c.17 0 .34.043.492.129L17 18.285V5.335c0-.201-.12-.334-.2-.334H7.2c-.08 0-.2.133-.2.334v12.9l4.306-2.585c.16-.095.337-.143.515-.143zM6.001 21c-.17 0-.34-.043-.494-.13C5.194 20.693 5 20.36 5 20V5.334C5 4.047 5.987 3 7.2 3h9.6C18.013 3 19 4.047 19 5.334V20c0 .356-.189.685-.496.864-.308.18-.686.183-.996.007l-5.672-3.208-5.322 3.195C6.356 20.952 6.178 21 6 21z" clip-rule="evenodd"/>
</svg>
