<svg xmlns="http://www.w3.org/2000/svg" width="162" height="31" fill="none" viewBox="0 0 162 31">
    <path fill="#fff" fill-rule="evenodd" d="M56.433 12.494v1.178c0 .826.116 1.39.348 1.692.261.332.759.498 1.494.498h4.119c.734 0 1.232-.166 1.493-.498.232-.303.348-.866.348-1.692v-1.178c0-.745-.125-1.28-.377-1.601-.3-.393-.846-.59-1.638-.59h-3.771c-.793 0-1.34.197-1.639.59-.252.322-.377.856-.377 1.6zm-3.315 2.228V11.46c0-1.51.411-2.573 1.233-3.187.696-.514 1.827-.77 3.394-.77h1.09l3.073-.009h1.008c1.566 0 2.702.257 3.408.77.812.615 1.218 1.677 1.218 3.188v3.262c0 1.51-.406 2.568-1.218 3.172-.706.524-1.842.785-3.408.785h-.861l-3.508.009h-.802c-1.567 0-2.698-.262-3.394-.786-.822-.604-1.233-1.661-1.233-3.172zM68.963 14.714v-3.262c0-1.51.41-2.573 1.233-3.188.696-.513 1.827-.77 3.393-.77h3.785c1.528 0 2.655.126 3.38.378.725.251 1.213.685 1.465 1.299.212.514.314 1.329.304 2.447h-3.22v-.303c0-.674-.502-1.011-1.508-1.011h-3.51c-.792 0-1.339.196-1.638.589-.252.322-.377.856-.377 1.6v1.179c0 .826.115 1.39.348 1.692.26.332.758.498 1.494.498h3.437c.763 0 1.269-.088 1.515-.264.247-.176.37-.592.37-1.247h3.22v1.027c0 1.048-.242 1.828-.725 2.342-.61.634-1.659.951-3.148.951H73.59c-1.566 0-2.697-.261-3.393-.785-.822-.604-1.233-1.662-1.233-3.172zM83.538 10.334v-2.72h12.27v2.72h-4.526v8.216h-3.22v-8.216h-4.524zM101.841 10.152l-2.03 4.109h4.118l-2.088-4.109zm-7.774 8.398l5.686-10.935h4.191l5.772 10.935h-3.582l-1.001-1.933h-6.526l-.943 1.933h-3.597z" clip-rule="evenodd"/>
    <path fill="#FF5F00" fill-rule="evenodd" d="M114.081 10.334v2.749h5.003c.697 0 1.044-.388 1.044-1.163v-.424c0-.775-.439-1.162-1.319-1.162h-4.728zm-3.22 8.216V7.615h8.775c1.43 0 2.446.358 3.045 1.073.503.584.754 1.475.754 2.673v.936c0 .957-.208 1.742-.623 2.357-.513.765-1.291 1.148-2.335 1.148h-6.396v2.748h-3.22zM124.886 14.654v-7.04h3.219v6.314c0 .695.136 1.191.406 1.488.271.298.735.446 1.393.446h3.19c.658 0 1.122-.148 1.393-.446.27-.296.405-.793.405-1.488V7.615h3.22v7.039c0 1.369-.35 2.38-1.051 3.035-.701.655-1.787.982-3.256.982h-4.612c-1.47 0-2.555-.327-3.256-.982-.701-.654-1.051-1.666-1.051-3.035zM139.998 18.55V7.615h3.22v8.126h7.237v2.81h-10.457zM151.527 18.55V7.615h3.22v8.126H162v2.81h-10.473zM29.75 14.657c0 2.661-.415 4.433-1.308 5.574-1.06 1.328-2.807 1.967-5.349 1.967H11.907c-2.542 0-4.288-.639-5.338-1.952-.903-1.156-1.319-2.928-1.319-5.589v-3.145c0-2.412.456-4.16 1.395-5.342 1.128-1.454 3.061-2.198 5.735-2.198h10.24c2.673 0 4.607.744 5.747 2.212.927 1.17 1.383 2.917 1.383 5.328v3.145zm2.883-12.685C31.622 1.227 29.409.327 24.678.327H10.322c-4.73 0-6.944.9-7.954 1.645C.775 3.163 0 5.358 0 8.683v8.804c0 .212.003.418.01.621H0v12.19l7-4.455h17.678c4.72 0 6.928-.915 7.948-1.683C34.231 22.98 35 20.803 35 17.487V8.683c0-3.325-.774-5.52-2.367-6.71zM36.75 9.44v7.29L42 20.38V5.793L36.75 9.44z" clip-rule="evenodd"/>
    <path fill="#fff" fill-rule="evenodd" d="M23.723 12.084v2.582c0 1.14-.887 2.064-1.982 2.064H13.26c-1.094 0-1.981-.924-1.981-2.063v-3.164c0-1.14.887-2.063 1.981-2.063h8.483c1.093 0 1.98.923 1.98 2.063v.58zm3.262-4.744c-.806-1.03-2.277-1.546-4.41-1.546h-10.15c-2.133 0-3.604.516-4.41 1.546C7.338 8.186 7 9.586 7 11.541v3.091c0 2.167.312 3.647.937 4.44.703.871 2.042 1.307 4.02 1.307h11.086c1.977 0 3.318-.436 4.02-1.308.625-.792.937-2.272.937-4.439v-3.09c0-1.956-.338-3.356-1.015-4.202z" clip-rule="evenodd"/>
</svg>
