<svg xmlns="http://www.w3.org/2000/svg" width="162" height="43" fill="none" viewBox="0 0 162 43">
    <path fill="#fff" fill-rule="evenodd" d="M56.432 17.459v1.669c0 1.17.116 1.969.349 2.397.26.47.758.706 1.493.706h4.12c.734 0 1.232-.236 1.493-.706.232-.428.348-1.227.348-2.397v-1.67c0-1.055-.126-1.811-.377-2.268-.3-.556-.846-.835-1.639-.835h-3.77c-.794 0-1.34.279-1.64.835-.251.457-.377 1.213-.377 2.269zm-3.314 3.157v-4.622c0-2.14.41-3.646 1.232-4.516.697-.727 1.828-1.091 3.394-1.091h1.09l3.074-.012h1.007c1.566 0 2.703.364 3.408 1.091.813.87 1.219 2.376 1.219 4.516v4.622c0 2.14-.407 3.639-1.219 4.495-.705.742-1.842 1.113-3.408 1.113h-.86l-3.509.011h-.802c-1.566 0-2.697-.37-3.394-1.113-.821-.856-1.232-2.354-1.232-4.494zM68.963 20.604v-4.622c0-2.14.41-3.645 1.232-4.516.697-.727 1.828-1.091 3.394-1.091h3.785c1.528 0 2.654.178 3.38.535.725.357 1.213.97 1.464 1.84.213.729.314 1.884.305 3.467h-3.22v-.428c0-.955-.503-1.433-1.508-1.433h-3.51c-.793 0-1.34.278-1.639.834-.251.457-.377 1.213-.377 2.269v1.669c0 1.17.116 1.969.348 2.397.261.47.76.706 1.494.706h3.437c.764 0 1.27-.125 1.516-.374.246-.25.37-.839.37-1.766h3.22v1.455c0 1.484-.242 2.59-.726 3.317-.609.899-1.658 1.349-3.147 1.349h-5.192c-1.566 0-2.697-.371-3.394-1.113-.821-.857-1.232-2.355-1.232-4.495zM83.538 14.398v-3.852h12.27v3.852h-4.525V26.04h-3.22V14.398h-4.525zM101.841 14.141l-2.03 5.822h4.118l-2.088-5.822zm-7.774 11.9l5.686-15.495h4.191l5.772 15.494h-3.582l-1.001-2.74h-6.526l-.943 2.74h-3.597z" clip-rule="evenodd"/>
    <path fill="#FF5F00" fill-rule="evenodd" d="M114.081 14.398v3.895h5.004c.696 0 1.044-.549 1.044-1.647v-.6c0-1.098-.44-1.648-1.32-1.648h-4.728zm-3.219 11.642V10.546h8.774c1.431 0 2.446.507 3.045 1.52.503.827.754 2.09.754 3.787v1.327c0 1.356-.208 2.469-.623 3.339-.513 1.084-1.291 1.627-2.335 1.627h-6.396v3.894h-3.219zM124.886 20.519v-9.973h3.22v8.946c0 .984.135 1.687.406 2.108.27.421.735.63 1.392.63h3.191c.657 0 1.121-.209 1.392-.63.271-.42.406-1.124.406-2.108v-8.946h3.22v9.973c0 1.94-.351 3.374-1.051 4.302-.702.927-1.787 1.39-3.257 1.39h-4.611c-1.47 0-2.556-.463-3.256-1.39-.701-.928-1.052-2.362-1.052-4.302zM139.998 26.04V10.547h3.219V22.06h7.237v3.98h-10.456zM151.527 26.04V10.547h3.22V22.06H162v3.98h-10.473zM29.75 20.524c0 3.77-.415 6.28-1.308 7.898-1.06 1.881-2.807 2.786-5.349 2.786H11.907c-2.542 0-4.288-.904-5.338-2.766-.903-1.638-1.319-4.148-1.319-7.918v-4.456c0-3.418.456-5.894 1.395-7.569 1.128-2.06 3.061-3.114 5.735-3.114h10.24c2.673 0 4.607 1.054 5.747 3.134.927 1.657 1.383 4.133 1.383 7.55v4.455zm2.883-17.973C31.622 1.495 29.409.22 24.678.22H10.322c-4.73 0-6.944 1.275-7.954 2.331C.775 4.238 0 7.35 0 12.06v12.473c0 .3.003.593.01.88H0V42.686l7-6.312h17.678c4.72 0 6.928-1.297 7.948-2.384C34.231 32.317 35 29.232 35 24.533V12.06c0-4.711-.774-7.822-2.367-9.509zM36.75 13.131v10.33l5.25 5.17V7.967l-5.25 5.164z" clip-rule="evenodd"/>
    <path fill="#fff" fill-rule="evenodd" d="M23.723 16.878v3.66c0 1.614-.887 2.923-1.982 2.923H13.26c-1.094 0-1.981-1.309-1.981-2.923V16.055c0-1.615.887-2.924 1.981-2.924h8.483c1.093 0 1.98 1.31 1.98 2.924v.823zm3.262-6.721c-.806-1.46-2.277-2.19-4.41-2.19h-10.15c-2.133 0-3.604.73-4.41 2.19C7.338 11.355 7 13.339 7 16.109v4.38c0 3.07.312 5.166.937 6.29.703 1.235 2.042 1.852 4.02 1.852h11.086c1.977 0 3.318-.617 4.02-1.853.625-1.123.937-3.219.937-6.289v-4.38c0-2.77-.338-4.754-1.015-5.952z" clip-rule="evenodd"/>
</svg>
