<svg width="42" height="29" viewBox="0 0 42 29" fill="none" xmlns="http://www.w3.org/2000/svg">
<path fill-rule="evenodd" clip-rule="evenodd" d="M29.7503 13.7602C29.7503 16.3152 29.3347 18.016 28.4425 19.1123C27.3812 20.3873 25.6351 21.0004 23.0931 21.0004H11.9072C9.3652 21.0004 7.61936 20.3873 6.56942 19.1261C5.66557 18.016 5.24996 16.3152 5.24996 13.7602V10.7404C5.24996 8.42407 5.70616 6.74616 6.64481 5.61089C7.7729 4.21494 9.70625 3.50025 12.38 3.50025H22.6206C25.2932 3.50025 27.2265 4.21494 28.3668 5.62442C29.2944 6.74727 29.7503 8.4249 29.7503 10.7404V13.7602ZM32.6325 1.58015C31.6218 0.864361 29.409 0 24.6782 0H17.5001H16.1978H10.3221C5.59156 0 3.37846 0.864361 2.36802 1.58015C0.774611 2.72343 0 4.83131 0 8.02392V14.9805V16.4767C0 16.6802 0.00331384 16.8788 0.00966537 17.0738H0V21.0004V24.5004V28.7783L7.00022 24.5004H10.3221H11.8288H16.1978H17.5001H24.6782C29.3985 24.5004 31.6058 23.6216 32.6262 22.8849C34.2312 21.7518 35.0003 19.661 35.0003 16.4767V14.9805V8.02392C35.0003 4.83131 34.2259 2.72343 32.6325 1.58015Z" fill="#FF5F00"/>
<path fill-rule="evenodd" clip-rule="evenodd" d="M36.7502 8.75022V15.7504L42.0002 19.2543V5.25024L36.7502 8.75022Z" fill="#FF5F00"/>
<path fill-rule="evenodd" clip-rule="evenodd" d="M23.7225 11.2892V13.2885V13.7693C23.7225 14.8634 22.8355 15.7504 21.7414 15.7504H20.5406H19.6003H15.9692H14.4813H13.259C12.1649 15.7504 11.2779 14.8634 11.2779 13.7693V13.4338V11.1801V10.7313C11.2779 9.63722 12.1649 8.75022 13.259 8.75022H14.2369H16.4737H19.6257H20.8817H21.7414C22.8355 8.75022 23.7225 9.63722 23.7225 10.7313V11.2892ZM26.9852 6.73429C26.1786 5.74484 24.7081 5.25024 22.5745 5.25024H12.4259C10.2918 5.25024 8.82123 5.74484 8.01487 6.73429C7.33801 7.54674 7 8.89106 7 10.7683V13.7364C7 15.817 7.31233 17.2375 7.93699 17.9986C8.63952 18.8359 9.97942 19.2543 11.9575 19.2543H23.0429C25.0201 19.2543 26.3609 18.8359 27.0634 17.9986C27.6881 17.2375 28.0004 15.817 28.0004 13.7364V10.7683C28.0004 8.89106 27.6618 7.54674 26.9852 6.73429Z" fill="white"/>
</svg>
