<svg xmlns="http://www.w3.org/2000/svg" width="42" height="42" fill="none" viewBox="0 0 42 42">
    <path fill="#2C3F64" fill-rule="evenodd" d="M12.25 28c0-.962.787-1.75 1.75-1.75s1.75.788 1.75 1.75-.787 1.75-1.75 1.75-1.75-.788-1.75-1.75zM21 26.25h7c.962 0 1.75.788 1.75 1.75s-.788 1.75-1.75 1.75h-7c-.962 0-1.75-.788-1.75-1.75s.788-1.75 1.75-1.75zM31.5 35h-21c-.964 0-1.75-.786-1.75-1.75v-10.5h24.5v10.5c0 .964-.786 1.75-1.75 1.75m-21-24.5h1.75v1.75c0 .963.787 1.75 1.75 1.75s1.75-.787 1.75-1.75V10.5h10.5v1.75c0 .963.788 1.75 1.75 1.75s1.75-.787 1.75-1.75V10.5h1.75c.964 0 1.75.786 1.75 1.75v7H8.75v-7c0-.964.786-1.75 1.75-1.75m21-3.5h-1.75V5.25c0-.963-.788-1.75-1.75-1.75s-1.75.787-1.75 1.75V7h-10.5V5.25c0-.963-.787-1.75-1.75-1.75s-1.75.787-1.75 1.75V7H10.5c-2.894 0-5.25 2.355-5.25 5.25v21c0 2.895 2.356 5.25 5.25 5.25h21c2.895 0 5.25-2.355 5.25-5.25v-21C36.75 9.355 34.395 7 31.5 7" clip-rule="evenodd"/>
</svg>
