<svg xmlns="http://www.w3.org/2000/svg" width="42" height="42" fill="none" viewBox="0 0 42 42">
    <path fill="#2C3F64" fill-rule="evenodd" d="M33.25 33.25c0 .966-.786 1.75-1.75 1.75h-21c-.964 0-1.75-.784-1.75-1.75V14c0-.966.786-1.75 1.75-1.75V14c0 1.93 1.57 3.5 3.5 3.5h14c1.93 0 3.5-1.57 3.5-3.5v-1.75c.964 0 1.75.784 1.75 1.75v19.25zM14 7l14 .005V14H14V7zm17.5 1.75V7c0-1.93-1.57-3.5-3.5-3.5H14c-1.93 0-3.5 1.57-3.5 3.5v1.75c-2.894 0-5.25 2.355-5.25 5.25v19.25c0 2.895 2.356 5.25 5.25 5.25h21c2.895 0 5.25-2.355 5.25-5.25V14c0-2.895-2.355-5.25-5.25-5.25z" clip-rule="evenodd"/>
</svg>
