<svg xmlns="http://www.w3.org/2000/svg" width="42" height="42" fill="none" viewBox="0 0 42 42">
    <path fill="#2C3F64" fill-rule="evenodd" d="M29.666 9.403l8.448 10.5c.524.65.515 1.577-.019 2.219l-8.75 10.5c-.346.415-.843.628-1.345.628-.396 0-.791-.133-1.12-.404-.742-.62-.842-1.724-.224-2.468l7.834-9.397-7.553-9.384c-.604-.754-.486-1.855.268-2.46.753-.61 1.853-.487 2.46.266zm-17.01-.024c.618-.742 1.719-.842 2.466-.224.742.62.842 1.722.224 2.466L7.51 21.018l7.553 9.386c.604.752.487 1.853-.268 2.46-.322.26-.71.387-1.095.387-.511 0-1.019-.224-1.365-.653l-8.45-10.5c-.522-.65-.514-1.578.02-2.219l8.75-10.5z" clip-rule="evenodd"/>
</svg>
