<svg xmlns="http://www.w3.org/2000/svg" width="21" height="20" fill="none" viewBox="0 0 21 20">
    <path fill="#071D49" fill-rule="evenodd" d="M15.47 5.607l-2.245-2.245-1.623 1.624 2.246 2.246 1.622-1.625zm-10.729 9.39L4.666 15c-.22 0-.432-.087-.59-.244-.174-.175-.262-.419-.24-.665l.315-3.474c.035-.381.203-.741.475-1.012l7.497-7.497c.585-.587 1.646-.558 2.263.058l2.282 2.281v.001c.638.638.664 1.653.057 2.262l-7.497 7.497c-.271.271-.63.44-1.012.474l-3.475.316zm-.075 1.67h11.666c.459 0 .834.375.834.833 0 .458-.375.833-.834.833H4.666c-.459 0-.834-.375-.834-.833 0-.458.375-.833.834-.833z" clip-rule="evenodd"/>
</svg>
