<svg xmlns="http://www.w3.org/2000/svg" width="24" height="24" fill="none" viewBox="0 0 24 24">
    <path fill="#2C3F64" fill-rule="evenodd" d="M9 13v-1c0-1.654 1.346-3 3-3h1V5.667c0-.368-.299-.667-.667-.667H5.667C5.299 5 5 5.299 5 5.667v6.666c0 .368.299.667.667.667H9zm0 2H5.667C4.196 15 3 13.804 3 12.333V5.667C3 4.196 4.196 3 5.667 3h6.666C13.804 3 15 4.196 15 5.667V9h3c1.654 0 3 1.346 3 3v6c0 1.654-1.346 3-3 3h-6c-1.654 0-3-1.346-3-3v-3zm2-3c0-.551.449-1 1-1h6c.552 0 1 .449 1 1v6c0 .551-.448 1-1 1h-6c-.551 0-1-.449-1-1v-6z" clip-rule="evenodd"/>
</svg>
