<svg xmlns="http://www.w3.org/2000/svg" width="42" height="42" fill="none" viewBox="0 0 42 42">
    <path fill="#2C3F64" fill-rule="evenodd" d="M21 24.5h-5.25c-.966 0-1.75-.784-1.75-1.75S14.784 21 15.75 21H21c.965 0 1.75.784 1.75 1.75S21.965 24.5 21 24.5zm-7 5.25c0-.966.784-1.75 1.75-1.75h10.5c.967 0 1.75.784 1.75 1.75s-.783 1.75-1.75 1.75h-10.5c-.966 0-1.75-.784-1.75-1.75zM30.526 35H11.471c-.535 0-.971-.392-.971-.875V7.875c0-.483.436-.875.971-.875H21v5.512c0 2.752 2.13 4.988 4.75 4.988h5.75v16.625c0 .483-.436.875-.973.875zM24.5 8.712L29.299 14h-3.55c-.689 0-1.249-.667-1.249-1.488v-3.8zm10.045 5.862l-9.527-10.5c-.332-.366-.802-.574-1.297-.574h-12.25C9.005 3.5 7 5.463 7 7.875v26.25c0 2.411 2.005 4.375 4.471 4.375h19.056c2.466 0 4.473-1.964 4.473-4.375V15.75c0-.436-.163-.854-.455-1.176z" clip-rule="evenodd"/>
</svg>
