<svg xmlns="http://www.w3.org/2000/svg" width="20" height="20" fill="none" viewBox="0 0 20 20">
    <path fill="#516180" fill-rule="evenodd" d="M9.064 14.548l1.688 1.277v-3.794c0-.138.035-.274.1-.396L14.436 5h-8.9L8.97 11.65c.061.118.093.25.093.382v2.517zm2.522 3.786c-.178 0-.355-.057-.503-.17l-3.355-2.537c-.208-.158-.33-.404-.33-.664v-2.729L3.426 4.55c-.135-.258-.124-.567.028-.816.15-.248.42-.4.712-.4h11.666c.293 0 .565.155.716.407.15.252.157.564.018.823l-4.148 7.679V17.5c0 .316-.178.605-.462.746-.117.058-.245.088-.371.088z" clip-rule="evenodd"/>
</svg>
