<svg xmlns="http://www.w3.org/2000/svg" width="42" height="42" fill="none" viewBox="0 0 42 42">
    <path fill="#2C3F64" fill-rule="evenodd" d="M12.613 16.987c-.685.685-1.79.685-2.475 0l-5.25-5.25c-.684-.684-.684-1.79 0-2.474l5.25-5.25c.341-.341.79-.513 1.237-.513.448 0 .896.172 1.238.513.684.684.684 1.79 0 2.474L10.35 8.75h20.993c3.465 0 6.282 2.77 6.282 6.176v4.324c0 .968-.782 1.75-1.75 1.75-.967 0-1.75-.782-1.75-1.75v-4.324c0-1.475-1.247-2.676-2.782-2.676H10.35l2.263 2.263c.684.684.684 1.79 0 2.474zM31.65 33.25H10.658c-3.464 0-6.283-2.77-6.283-6.176V22.75c0-.968.782-1.75 1.75-1.75s1.75.782 1.75 1.75v4.324c0 1.474 1.248 2.676 2.783 2.676H31.65l-2.263-2.263c-.683-.684-.683-1.79 0-2.474.341-.341.79-.513 1.237-.513.448 0 .896.172 1.237.513l5.25 5.25c.685.684.685 1.79 0 2.474l-5.25 5.25c-.682.685-1.79.685-2.474 0-.683-.684-.683-1.79 0-2.474l2.263-2.263z" clip-rule="evenodd"/>
</svg>
