<svg xmlns="http://www.w3.org/2000/svg" width="42" height="42" fill="none" viewBox="0 0 42 42">
    <path fill="#2C3F64" fill-rule="evenodd" d="M29.556 32.057c-.301-.758-.728-1.42-1.103-1.985-.189-.283-.383-.572-.553-.87-.68-1.182-.446-1.662.658-3.512l.179-.302c.894-1.507.943-2.953.989-4.227.02-.626.041-1.216.162-1.77.282-1.281 2.99-1.623 4.668-1.824.281 1.1.444 2.247.444 3.433 0 4.496-2.139 8.493-5.444 11.057M8.683 27.649c1.113.283 2.32.48 3.546.48 1.89 0 3.82-.463 5.49-1.77 3.003-2.349 3.003-5.352 3.003-7.767 0-1.56 0-2.906.65-4.101.35-.641 1.096-1.085 1.959-1.602.529-.316 1.076-.642 1.601-1.055 1.126-.88 1.962-2.013 2.48-3.266 2.45 1.27 4.48 3.235 5.82 5.64-2.498.347-6.046 1.166-6.761 4.434-.19.864-.22 1.678-.242 2.397-.037 1.02-.065 1.827-.502 2.566l-.175.293c-1.133 1.896-2.413 4.045-.686 7.05.208.363.44.713.67 1.062.602.903.898 1.401.9 1.892C24.764 34.608 22.925 35 21 35c-5.315 0-9.945-2.979-12.317-7.352M21 7c1.078 0 2.12.133 3.127.364-.296.651-.752 1.245-1.354 1.715-.382.301-.81.552-1.236.805-1.139.68-2.429 1.45-3.237 2.93-1.078 1.977-1.078 3.997-1.078 5.779 0 2.37-.077 3.773-1.66 5.01-2.395 1.877-6.061.83-8.33-.125C7.09 22.672 7 21.846 7 21c0-7.719 6.28-14 14-14m0-3.5C11.35 3.5 3.5 11.351 3.5 21c0 9.648 7.85 17.5 17.5 17.5S38.5 30.649 38.5 21c0-9.649-7.85-17.5-17.5-17.5" clip-rule="evenodd"/>
</svg>
