<svg xmlns="http://www.w3.org/2000/svg" width="25" height="24" fill="none" viewBox="0 0 25 24">
    <g clip-path="url(#clip0)">
        <path fill="#167EE6" d="M22.644 10.026h-8.93c-.394 0-.713.32-.713.713v2.855c0 .393.32.712.713.712h5.03c-.549 1.43-1.58 2.625-2.888 3.384l2.142 3.713c3.436-1.988 5.47-5.48 5.47-9.384 0-.558-.041-.957-.121-1.402-.066-.342-.361-.59-.703-.59z"/>
        <path fill="#12B347" d="M12.523 18.59c-2.46 0-4.608-1.345-5.76-3.332L3.05 17.395c1.889 3.277 5.428 5.48 9.473 5.48 1.988 0 3.858-.534 5.475-1.467v-.005l-2.142-3.712c-.984.572-2.119.9-3.333.9z"/>
        <path fill="#0F993E" d="M17.994 21.408v-.005l-2.142-3.713c-.98.568-2.114.9-3.329.9v4.285c1.988 0 3.858-.535 5.47-1.467z"/>
        <path fill="#FFD500" d="M5.862 11.93c0-1.215.333-2.349.9-3.329L3.05 6.464c-.938 1.608-1.472 3.473-1.472 5.466 0 1.992.534 3.857 1.472 5.465l3.713-2.137c-.572-.98-.9-2.114-.9-3.328z"/>
        <path fill="#FF4B26" d="M12.523 5.269c1.603 0 3.08.572 4.228 1.518.286.235.699.216.957-.042l2.02-2.02c.295-.295.272-.778-.042-1.05-1.927-1.678-4.435-2.69-7.163-2.69-4.045 0-7.584 2.203-9.473 5.48l3.712 2.137c1.153-1.988 3.3-3.333 5.761-3.333z"/>
        <path fill="#D93F21" d="M16.752 6.787c.286.235.698.216.956-.042l2.02-2.02c.295-.295.272-.778-.042-1.05-1.927-1.678-4.434-2.69-7.163-2.69v4.284c1.604 0 3.08.567 4.229 1.518z"/>
    </g>
    <defs>
        <clipPath id="clip0">
            <path fill="#fff" d="M0 0H24V24H0z" transform="translate(.5)"/>
        </clipPath>
    </defs>
</svg>
