<svg xmlns="http://www.w3.org/2000/svg" width="21" height="20" fill="none" viewBox="0 0 21 20">
    <path fill="#071D49" fill-rule="evenodd" d="M4.667 2.5H8c.92 0 1.667.748 1.667 1.667V7.5c0 .92-.748 1.667-1.667 1.667H4.667C3.747 9.167 3 8.419 3 7.5V4.167c0-.92.748-1.667 1.667-1.667zM13 2.5h3.333c.92 0 1.667.748 1.667 1.667V7.5c0 .92-.747 1.667-1.667 1.667H13c-.92 0-1.667-.748-1.667-1.667V4.167c0-.92.748-1.667 1.667-1.667zm-5 8.333H4.667c-.92 0-1.667.748-1.667 1.667v3.333c0 .92.748 1.667 1.667 1.667H8c.92 0 1.667-.747 1.667-1.667V12.5c0-.92-.748-1.667-1.667-1.667zm5 0h3.333c.92 0 1.667.748 1.667 1.667v3.333c0 .92-.747 1.667-1.667 1.667H13c-.92 0-1.667-.747-1.667-1.667V12.5c0-.92.748-1.667 1.667-1.667z" clip-rule="evenodd"/>
</svg>
