<svg xmlns="http://www.w3.org/2000/svg" width="222" height="41" fill="none" viewBox="0 0 222 41">
    <path fill="#fff" fill-rule="evenodd" d="M77.333 16.784v1.55c0 1.087.16 1.829.478 2.226.357.437 1.04.656 2.046.656h5.645c1.007 0 1.69-.219 2.047-.656.318-.397.477-1.14.477-2.226v-1.55c0-.98-.173-1.683-.517-2.106-.41-.517-1.16-.776-2.246-.776h-5.167c-1.087 0-1.836.259-2.246.776-.345.423-.517 1.126-.517 2.106zm-4.542 2.932v-4.292c0-1.988.563-3.386 1.69-4.194.953-.675 2.503-1.014 4.65-1.014h1.494l4.212-.01h1.38c2.147 0 3.703.338 4.67 1.013 1.114.808 1.67 2.206 1.67 4.194v4.292c0 1.988-.556 3.379-1.67 4.174-.967.69-2.523 1.034-4.67 1.034h-1.18l-4.807.01h-1.1c-2.146 0-3.696-.344-4.65-1.033-1.126-.795-1.689-2.186-1.689-4.174zM94.504 19.705v-4.292c0-1.988.563-3.386 1.69-4.194.953-.675 2.503-1.013 4.65-1.013h5.187c2.093 0 3.637.165 4.631.496.994.332 1.662.902 2.007 1.71.291.676.43 1.749.417 3.22h-4.412v-.398c0-.888-.689-1.332-2.067-1.332h-4.809c-1.087 0-1.836.259-2.246.776-.345.423-.517 1.126-.517 2.106v1.55c0 1.087.16 1.829.477 2.226.358.438 1.04.656 2.047.656h4.71c1.047 0 1.74-.116 2.077-.348.338-.231.507-.778.507-1.64h4.412v1.352c0 1.378-.331 2.405-.993 3.08-.835.835-2.273 1.253-4.313 1.253h-7.115c-2.147 0-3.697-.345-4.65-1.034-1.127-.795-1.69-2.186-1.69-4.174zM114.479 13.942v-3.578h16.813v3.578h-6.201v10.811h-4.412V13.942h-6.2zM139.56 13.703l-2.783 5.407h5.645l-2.862-5.407zm-10.653 11.05l7.791-14.389h5.744l7.909 14.39h-4.909l-1.371-2.544h-8.943l-1.292 2.543h-4.929z" clip-rule="evenodd"/>
    <path fill="#FF5F00" fill-rule="evenodd" d="M156.333 13.942v3.617h6.856c.955 0 1.431-.51 1.431-1.53v-.557c0-1.02-.602-1.53-1.808-1.53h-6.479zm-4.412 10.811V10.364h12.024c1.96 0 3.352.471 4.173 1.412.689.768 1.034 1.94 1.034 3.517v1.233c0 1.259-.285 2.292-.855 3.1-.702 1.007-1.769 1.51-3.199 1.51h-8.765v3.617h-4.412zM171.141 19.626v-9.262h4.412v8.308c0 .914.185 1.567.556 1.958.371.39 1.007.586 1.908.586h4.372c.901 0 1.537-.195 1.908-.586.371-.39.557-1.044.557-1.958v-8.308h4.412v9.262c0 1.802-.481 3.133-1.441 3.995-.961.861-2.448 1.292-4.462 1.292h-6.32c-2.014 0-3.501-.43-4.461-1.292-.961-.862-1.441-2.193-1.441-3.995zM191.849 24.753V10.364h4.412v10.692h9.917v3.697h-14.329zM207.648 24.753V10.364h4.413v10.692H222v3.697h-14.352zM40.769 19.631c0 3.501-.57 5.832-1.792 7.334-1.455 1.748-3.847 2.588-7.33 2.588h-15.33c-3.483 0-5.876-.84-7.314-2.569-1.24-1.521-1.809-3.852-1.809-7.353v-4.138c0-3.175.626-5.474 1.912-7.03 1.546-1.913 4.195-2.892 7.86-2.892h14.033c3.662 0 6.311.98 7.874 2.91 1.271 1.54 1.896 3.839 1.896 7.012v4.138zm3.95-16.691C43.334 1.959 40.3.774 33.819.774H14.144C7.663.774 4.63 1.96 3.245 2.94 1.062 4.507 0 7.395 0 11.77V23.353c0 .28.005.552.013.819H0V40.21l9.593-5.862h24.225c6.469 0 9.494-1.204 10.892-2.214 2.2-1.553 3.253-4.418 3.253-8.781V11.77c0-4.375-1.06-7.263-3.244-8.83zM50.361 12.765v9.593l7.195 4.802V7.97l-7.195 4.795z" clip-rule="evenodd"/>
    <path fill="#fff" fill-rule="evenodd" d="M32.509 16.245v3.399c0 1.499-1.216 2.714-2.715 2.714H18.17c-1.5 0-2.715-1.215-2.715-2.715V15.48c0-1.499 1.216-2.715 2.715-2.715H29.794c1.5 0 2.715 1.216 2.715 2.715v.765zm4.471-6.242c-1.105-1.356-3.12-2.034-6.044-2.034H17.028c-2.924 0-4.94.678-6.044 2.034-.928 1.113-1.391 2.956-1.391 5.528V19.6c0 2.85.428 4.797 1.284 5.84.962 1.148 2.799 1.72 5.51 1.72h15.19c2.71 0 4.547-.572 5.51-1.72.856-1.043 1.284-2.99 1.284-5.84V15.53c0-2.572-.464-4.415-1.391-5.528z" clip-rule="evenodd"/>
</svg>
