<svg xmlns="http://www.w3.org/2000/svg" width="20" height="20" fill="none" viewBox="0 0 20 20">
    <path fill="#516180" fill-rule="evenodd" d="M4.167 9.167c0-2.758 2.242-5 5-5 2.757 0 5 2.242 5 5 0 2.757-2.243 5-5 5-2.758 0-5-2.243-5-5zm13.089 6.91l-2.83-2.83c.878-1.128 1.407-2.542 1.407-4.08 0-3.676-2.99-6.667-6.666-6.667S2.5 5.49 2.5 9.167c0 3.675 2.99 6.666 6.667 6.666 1.538 0 2.952-.529 4.08-1.406l2.83 2.829c.163.162.376.244.59.244.213 0 .426-.082.589-.244.326-.326.326-.853 0-1.178z" clip-rule="evenodd"/>
</svg>
