<svg xmlns="http://www.w3.org/2000/svg" width="20" height="15" fill="none" viewBox="0 0 20 15">
    <path fill="#071D49" fill-rule="evenodd" d="M4.167 3.333h11.667c.458 0 .833.375.833.834v1.667c0 .458-.375.833-.833.833-.458 0-.833-.375-.833-.833V5H5v.833c0 .459-.375.834-.834.834-.458 0-.833-.375-.833-.833V4.167c0-.458.375-.833.833-.833zm2.501 8.334c-.254 0-.503-.115-.667-.333-.277-.369-.202-.891.166-1.167l3.334-2.5c.288-.217.685-.223.979-.015l3.333 2.345c.377.265.468.785.203 1.16-.265.377-.785.468-1.161.203l-2.023-1.423.002.063v6.667c0 .46-.373.833-.833.833-.461 0-.834-.373-.834-.833V10l-2 1.5c-.15.113-.325.167-.499.167z" clip-rule="evenodd"/>
</svg>
