<svg xmlns="http://www.w3.org/2000/svg" width="20" height="20" fill="none" viewBox="0 0 20 20">
    <path fill="#071D49" fill-rule="evenodd" d="M15.833 15H4.166c-.46 0-.833-.373-.833-.833V6.042l6.166 4.625c.149.111.325.167.5.167.176 0 .352-.056.5-.167l6.167-4.625v8.125c0 .46-.374.833-.833.833zm-.556-10L9.999 8.96 4.722 5h10.555zm.556-1.667H4.166c-1.378 0-2.5 1.122-2.5 2.5v8.334c0 1.378 1.122 2.5 2.5 2.5h11.667c1.378 0 2.5-1.122 2.5-2.5V5.833c0-1.378-1.122-2.5-2.5-2.5z" clip-rule="evenodd"/>
</svg>
