<svg xmlns="http://www.w3.org/2000/svg" width="20" height="20" fill="none" viewBox="0 0 20 20">
    <path fill="#071D49" fill-rule="evenodd" d="M7.5 10.833V10c0-1.378 1.122-2.5 2.5-2.5h.833V4.723c0-.307-.249-.556-.556-.556H4.723c-.307 0-.556.249-.556.556v5.554c0 .307.249.556.556.556H7.5zm0 1.667H4.723c-1.226 0-2.223-.997-2.223-2.223V4.723c0-1.226.997-2.223 2.223-2.223h5.554c1.226 0 2.223.997 2.223 2.223V7.5H15c1.378 0 2.5 1.122 2.5 2.5v5c0 1.378-1.122 2.5-2.5 2.5h-5c-1.378 0-2.5-1.122-2.5-2.5v-2.5zM9.167 10c0-.46.374-.833.833-.833h5c.46 0 .833.374.833.833v5c0 .46-.373.833-.833.833h-5c-.46 0-.833-.374-.833-.833v-5z" clip-rule="evenodd"/>
</svg>
