<svg xmlns="http://www.w3.org/2000/svg" width="20" height="20" fill="none" viewBox="0 0 20 20">
    <path fill="#fff" fill-rule="evenodd" d="M14.167 3.333h1.667c.458 0 .833.375.833.834v11.666c0 .459-.375.834-.834.834h-1.666c-.458 0-.833-.375-.833-.834 0-.458.375-.833.833-.833H15V5h-.833c-.458 0-.833-.375-.833-.833 0-.458.375-.833.833-.833zM8.667 6c.37-.275.89-.2 1.166.167l2.5 3.334c.217.288.224.683.015.979l-2.345 3.333c-.162.23-.42.354-.682.354-.165 0-.333-.049-.479-.152-.376-.264-.467-.785-.202-1.161l1.432-2.035c-.012.001-.022.004-.033.007-.012.004-.025.008-.039.008H3.333c-.46 0-.833-.373-.833-.833 0-.461.373-.834.833-.834H10l-1.5-2c-.276-.368-.202-.89.167-1.167z" clip-rule="evenodd"/>
</svg>
