<svg xmlns="http://www.w3.org/2000/svg" width="24" height="24" fill="none" viewBox="0 0 24 24">
    <path fill="#516180" fill-rule="evenodd" d="M16.889 18.319c-.172-.433-.416-.811-.63-1.134-.108-.162-.22-.327-.316-.497-.39-.676-.255-.95.376-2.007l.102-.173c.51-.861.539-1.688.565-2.415.012-.358.024-.695.093-1.012.16-.732 1.708-.928 2.667-1.042.16.629.254 1.284.254 1.962 0 2.569-1.222 4.853-3.111 6.318zm-11.927-2.52c.636.162 1.325.274 2.026.274 1.08 0 2.183-.264 3.137-1.01 1.716-1.343 1.716-3.059 1.716-4.439 0-.892 0-1.66.372-2.344.2-.366.626-.62 1.119-.915.302-.18.615-.367.915-.603.643-.503 1.12-1.15 1.417-1.866 1.4.725 2.56 1.848 3.326 3.223-1.428.198-3.455.666-3.864 2.534-.108.493-.125.958-.138 1.37-.021.582-.037 1.043-.287 1.466l-.1.167c-.647 1.083-1.38 2.311-.392 4.028.119.208.252.409.383.607.344.517.513.802.514 1.081C14.15 19.776 13.1 20 12 20c-3.037 0-5.683-1.701-7.038-4.2zM12 4c.616 0 1.21.076 1.787.208-.17.372-.43.711-.774.98-.218.172-.463.315-.706.46-.651.388-1.388.828-1.85 1.674-.616 1.13-.616 2.284-.616 3.302 0 1.355-.044 2.156-.948 2.864-1.37 1.072-3.464.473-4.76-.072-.082-.46-.133-.933-.133-1.415 0-4.412 3.589-8 8-8zm0-2C6.486 2 2 6.486 2 12s4.486 10 10 10 10-4.486 10-10S17.514 2 12 2z" clip-rule="evenodd"/>
</svg>
