<svg xmlns="http://www.w3.org/2000/svg" width="42" height="42" fill="none" viewBox="0 0 42 42">
    <path fill="#2C3F64" fill-rule="evenodd" d="M31.5 33.25h-8.75V17.5h10.5v14c0 .966-.786 1.75-1.75 1.75M8.75 31.5v-14h10.5v15.75H10.5c-.964 0-1.75-.784-1.75-1.75M10.5 8.75h21c.964 0 1.75.784 1.75 1.75V14H8.75v-3.5c0-.966.786-1.75 1.75-1.75m21-3.5h-21c-2.894 0-5.25 2.356-5.25 5.25v21c0 2.895 2.356 5.25 5.25 5.25h21c2.895 0 5.25-2.355 5.25-5.25v-21c0-2.894-2.355-5.25-5.25-5.25" clip-rule="evenodd"/>
</svg>
