<svg xmlns="http://www.w3.org/2000/svg" width="21" height="20" fill="none" viewBox="0 0 21 20">
    <path fill="#516180" fill-rule="evenodd" d="M3 5.833c0-.46.373-.833.833-.833.46 0 .834.373.834.833 0 .46-.374.834-.834.834-.46 0-.833-.374-.833-.834zM3 10c0-.46.373-.833.833-.833.46 0 .834.373.834.833 0 .46-.374.833-.834.833-.46 0-.833-.373-.833-.833zm.833 3.333c-.46 0-.833.374-.833.834 0 .46.373.833.833.833.46 0 .834-.373.834-.833 0-.46-.374-.834-.834-.834zm3.28-4.166H17.22c.43 0 .78.35.78.78v.106c0 .43-.35.78-.78.78H7.113c-.43 0-.78-.35-.78-.78v-.106c0-.43.35-.78.78-.78zm10.107 4.166H7.113c-.43 0-.78.351-.78.78v.107c0 .43.35.78.78.78H17.22c.43 0 .78-.35.78-.78v-.107c0-.429-.35-.78-.78-.78zM7.113 5H17.22c.43 0 .78.35.78.78v.107c0 .429-.35.78-.78.78H7.113c-.43 0-.78-.351-.78-.78V5.78c0-.43.35-.78.78-.78z" clip-rule="evenodd"/>
</svg>
