<svg xmlns="http://www.w3.org/2000/svg" width="24" height="24" fill="none" viewBox="0 0 24 24">
    <path fill="#2C3F64" fill-rule="evenodd" d="M12 16c-.552 0-1-.448-1-1s.448-1 1-1 1 .448 1 1-.448 1-1 1zm0-4c-1.654 0-3 1.346-3 3s1.346 3 3 3 3-1.346 3-3-1.346-3-3-3zm6 7c0 .552-.448 1-1 1H7c-.552 0-1-.448-1-1v-8c0-.552.448-1 1-1h10c.552 0 1 .448 1 1v8zM10 6.111C10 4.947 10.897 4 12 4s2 .947 2 2.111V8h-4V6.111zM17 8h-1V6.111C16 3.845 14.206 2 12 2S8 3.845 8 6.111V8H7c-1.654 0-3 1.346-3 3v8c0 1.654 1.346 3 3 3h10c1.654 0 3-1.346 3-3v-8c0-1.654-1.346-3-3-3z" clip-rule="evenodd"/>
</svg>
