<svg xmlns="http://www.w3.org/2000/svg" width="42" height="42" fill="none" viewBox="0 0 42 42">
    <path fill="#2C3F64" fill-rule="evenodd" d="M21 28c-.966 0-1.75-.784-1.75-1.75s.784-1.75 1.75-1.75 1.75.784 1.75 1.75S21.966 28 21 28m0-7c-2.895 0-5.25 2.355-5.25 5.25S18.105 31.5 21 31.5s5.25-2.355 5.25-5.25S23.895 21 21 21m10.5 12.25c0 .966-.784 1.75-1.75 1.75h-17.5c-.966 0-1.75-.784-1.75-1.75v-14c0-.966.784-1.75 1.75-1.75h17.5c.966 0 1.75.784 1.75 1.75v14zm-14-22.556C17.5 8.657 19.07 7 21 7s3.5 1.657 3.5 3.694V14h-7v-3.306zM29.75 14H28v-3.306C28 6.73 24.86 3.5 21 3.5s-7 3.229-7 7.194V14h-1.75C9.355 14 7 16.355 7 19.25v14c0 2.895 2.355 5.25 5.25 5.25h17.5c2.895 0 5.25-2.355 5.25-5.25v-14c0-2.895-2.355-5.25-5.25-5.25z" clip-rule="evenodd"/>
</svg>
