<svg width="88" height="340" viewBox="0 0 88 340" fill="none" xmlns="http://www.w3.org/2000/svg">
<mask id="mask0" mask-type="alpha" maskUnits="userSpaceOnUse" x="0" y="0" width="88" height="340">
<rect width="88" height="340" fill="#071D49"/>
</mask>
<g mask="url(#mask0)">
<path fill-rule="evenodd" clip-rule="evenodd" d="M44 337.811V340H-122.5V337.811H-91.829V329.057H-113.737V307.171H-122.5V304.983H-113.737V261.211H-67.7303V283.096H-45.8224V329.057H-89.6382V337.811H8.94736V329.057H-34.8684V283.096H-12.9605V261.211H33.0461V304.983H41.8092V206.496H33.0461V250.268H-12.9605V228.382H-34.8684V182.421H8.94736V173.667H11.1382V182.421H33.0461V204.307H41.8092V173.667H44V337.811ZM41.8092 337.811V307.171H33.0461V329.057H11.1382V337.811H41.8092ZM-32.6776 206.496V226.193H-12.9605V206.496H-32.6776ZM-10.7697 226.193H11.1382V248.079H30.8553V206.496H8.94736V184.61H-32.6776V204.307H-10.7697V226.193ZM-10.7697 228.382V248.079H8.94736V228.382H-10.7697ZM11.1382 204.307H30.8553V184.61H11.1382V204.307ZM-48.0131 304.983V285.285H-67.7303V304.983H-48.0131ZM-69.9211 285.285H-91.829V263.399H-111.546V304.983H-89.6382V326.868H-48.0131V307.171H-69.9211V285.285ZM-69.9211 283.096V263.399H-89.6382V283.096H-69.9211ZM-91.829 307.171H-111.546V326.868H-91.829V307.171ZM-32.6776 307.171V326.868H8.94736V304.983H30.8553V263.399H11.1382V285.285H-10.7697V307.171H-32.6776ZM-12.9605 285.285H-32.6776V304.983H-12.9605V285.285ZM-10.7697 283.096H8.94736V263.399H-10.7697V283.096ZM11.1382 326.868V307.171H30.8553V326.868H11.1382ZM-89.6382 173.667H-91.829V182.421H-113.737V204.307H-122.5V206.496H-113.737V250.268H-67.7303V228.382H-45.8224V182.421H-89.6382V173.667ZM-67.7303 226.193H-48.0131V206.496H-67.7303V226.193ZM-48.0131 204.307H-69.9211V226.193H-91.829V248.079H-111.546V206.496H-89.6382V184.61H-48.0131V204.307ZM-89.6382 228.382H-69.9211V248.079H-89.6382V228.382ZM-91.829 184.61H-111.546V204.307H-91.829V184.61Z" fill="url(#paint0_linear)" fill-opacity="0.2"/>
<path fill-rule="evenodd" clip-rule="evenodd" d="M-122.5 337.811V340H-289V337.811H-258.329V329.057H-280.237V307.171H-289V304.983H-280.237V261.211H-234.23V283.096H-212.322V329.057H-256.138V337.811H-157.553V329.057H-201.368V283.096H-179.461V261.211H-133.454V304.983H-124.691V206.496H-133.454V250.268H-179.461V228.382H-201.368V182.421H-157.553V173.667H-155.362V182.421H-133.454V204.307H-124.691V173.667H-122.5V337.811ZM-124.691 337.811V307.171H-133.454V329.057H-155.362V337.811H-124.691ZM-199.178 206.496V226.193H-179.461V206.496H-199.178ZM-177.27 226.193H-155.362V248.079H-135.645V206.496H-157.553V184.61H-199.178V204.307H-177.27V226.193ZM-177.27 228.382V248.079H-157.553V228.382H-177.27ZM-155.362 204.307H-135.645V184.61H-155.362V204.307ZM-214.513 304.983V285.285H-234.23V304.983H-214.513ZM-236.421 285.285H-258.329V263.399H-278.046V304.983H-256.138V326.868H-214.513V307.171H-236.421V285.285ZM-236.421 283.096V263.399H-256.138V283.096H-236.421ZM-258.329 307.171H-278.046V326.868H-258.329V307.171ZM-199.178 307.171V326.868H-157.553V304.983H-135.645V263.399H-155.362V285.285H-177.27V307.171H-199.178ZM-179.461 285.285H-199.178V304.983H-179.461V285.285ZM-177.27 283.096H-157.553V263.399H-177.27V283.096ZM-155.362 326.868V307.171H-135.645V326.868H-155.362ZM-256.138 173.667H-258.329V182.421H-280.237V204.307H-289V206.496H-280.237V250.268H-234.23V228.382H-212.322V182.421H-256.138V173.667ZM-234.23 226.193H-214.513V206.496H-234.23V226.193ZM-214.513 204.307H-236.421V226.193H-258.329V248.079H-278.046V206.496H-256.138V184.61H-214.513V204.307ZM-256.138 228.382H-236.421V248.079H-256.138V228.382ZM-258.329 184.61H-278.046V204.307H-258.329V184.61Z" fill="url(#paint1_linear)" fill-opacity="0.2"/>
<path fill-rule="evenodd" clip-rule="evenodd" d="M-122.5 171.478V173.667H-289V171.478H-258.329V162.724H-280.237V140.838H-289V138.649H-280.237V94.8772H-234.23V116.763H-212.322V162.724H-256.138V171.478H-157.553V162.724H-201.368V116.763H-179.461V94.8772H-133.454V138.649H-124.691V40.1623H-133.454V83.9342H-179.461V62.0482H-201.368V16.0878H-157.553V7.33333H-155.362V16.0878H-133.454V37.9736H-124.691V7.33333H-122.5V171.478ZM-124.691 171.478V140.838H-133.454V162.724H-155.362V171.478H-124.691ZM-199.178 40.1623V59.8596H-179.461V40.1623H-199.178ZM-177.27 59.8596H-155.362V81.7456H-135.645V40.1623H-157.553V18.2763H-199.178V37.9736H-177.27V59.8596ZM-177.27 62.0482V81.7456H-157.553V62.0482H-177.27ZM-155.362 37.9736H-135.645V18.2763H-155.362V37.9736ZM-214.513 138.649V118.952H-234.23V138.649H-214.513ZM-236.421 118.952H-258.329V97.0658H-278.046V138.649H-256.138V160.535H-214.513V140.838H-236.421V118.952ZM-236.421 116.763V97.0658H-256.138V116.763H-236.421ZM-258.329 140.838H-278.046V160.535H-258.329V140.838ZM-199.178 140.838V160.535H-157.553V138.649H-135.645V97.0658H-155.362V118.952H-177.27V140.838H-199.178ZM-179.461 118.952H-199.178V138.649H-179.461V118.952ZM-177.27 116.763H-157.553V97.0658H-177.27V116.763ZM-155.362 160.535V140.838H-135.645V160.535H-155.362ZM-256.138 7.33333H-258.329V16.0878H-280.237V37.9736H-289V40.1623H-280.237V83.9342H-234.23V62.0482H-212.322V16.0878H-256.138V7.33333ZM-234.23 59.8596H-214.513V40.1623H-234.23V59.8596ZM-214.513 37.9736H-236.421V59.8596H-258.329V81.7456H-278.046V40.1623H-256.138V18.2763H-214.513V37.9736ZM-256.138 62.0482H-236.421V81.7456H-256.138V62.0482ZM-258.329 18.2763H-278.046V37.9736H-258.329V18.2763Z" fill="url(#paint2_linear)" fill-opacity="0.2"/>
<path fill-rule="evenodd" clip-rule="evenodd" d="M-122.5 5.14473V7.33333H-289V5.14473H-258.329V-3.60964H-280.237V-25.4956H-289V-27.6842H-280.237V-71.4562H-234.23V-49.5702H-212.322V-3.60964H-256.138V5.14473H-157.553V-3.60964H-201.368V-49.5702H-179.461V-71.4562H-133.454V-27.6842H-124.691V-126.171H-133.454V-82.3991H-179.461V-104.285H-201.368V-150.246H-157.553V-159H-155.362V-150.246H-133.454V-128.36H-124.691V-159H-122.5V5.14473ZM-124.691 5.14473V-25.4956H-133.454V-3.60964H-155.362V5.14473H-124.691ZM-199.178 -126.171V-106.474H-179.461V-126.171H-199.178ZM-177.27 -106.474H-155.362V-84.5877H-135.645V-126.171H-157.553V-148.057H-199.178V-128.36H-177.27V-106.474ZM-177.27 -104.285V-84.5877H-157.553V-104.285H-177.27ZM-155.362 -128.36H-135.645V-148.057H-155.362V-128.36ZM-214.513 -27.6842V-47.3816H-234.23V-27.6842H-214.513ZM-236.421 -47.3816H-258.329V-69.2675H-278.046V-27.6842H-256.138V-5.79824H-214.513V-25.4956H-236.421V-47.3816ZM-236.421 -49.5702V-69.2675H-256.138V-49.5702H-236.421ZM-258.329 -25.4956H-278.046V-5.79824H-258.329V-25.4956ZM-199.178 -25.4956V-5.79824H-157.553V-27.6842H-135.645V-69.2675H-155.362V-47.3816H-177.27V-25.4956H-199.178ZM-179.461 -47.3816H-199.178V-27.6842H-179.461V-47.3816ZM-177.27 -49.5702H-157.553V-69.2675H-177.27V-49.5702ZM-155.362 -5.79824V-25.4956H-135.645V-5.79824H-155.362ZM-256.138 -159H-258.329V-150.246H-280.237V-128.36H-289V-126.171H-280.237V-82.3991H-234.23V-104.285H-212.322V-150.246H-256.138V-159ZM-234.23 -106.474H-214.513V-126.171H-234.23V-106.474ZM-214.513 -128.36H-236.421V-106.474H-258.329V-84.5877H-278.046V-126.171H-256.138V-148.057H-214.513V-128.36ZM-256.138 -104.285H-236.421V-84.5877H-256.138V-104.285ZM-258.329 -148.057H-278.046V-128.36H-258.329V-148.057Z" fill="url(#paint3_linear)" fill-opacity="0.2"/>
<path fill-rule="evenodd" clip-rule="evenodd" d="M-122.5 -161.189V-159H-289V-161.189H-258.329V-169.943H-280.237V-191.829H-289V-194.018H-280.237V-237.79H-234.23V-215.904H-212.322V-169.943H-256.138V-161.189H-157.553V-169.943H-201.368V-215.904H-179.461V-237.79H-133.454V-194.018H-124.691V-292.504H-133.454V-248.732H-179.461V-270.618H-201.368V-316.579H-157.553V-325.333H-155.362V-316.579H-133.454V-294.693H-124.691V-325.333H-122.5V-161.189ZM-124.691 -161.189V-191.829H-133.454V-169.943H-155.362V-161.189H-124.691ZM-199.178 -292.504V-272.807H-179.461V-292.504H-199.178ZM-177.27 -272.807H-155.362V-250.921H-135.645V-292.504H-157.553V-314.39H-199.178V-294.693H-177.27V-272.807ZM-177.27 -270.618V-250.921H-157.553V-270.618H-177.27ZM-155.362 -294.693H-135.645V-314.39H-155.362V-294.693ZM-214.513 -194.018V-213.715H-234.23V-194.018H-214.513ZM-236.421 -213.715H-258.329V-235.601H-278.046V-194.018H-256.138V-172.132H-214.513V-191.829H-236.421V-213.715ZM-236.421 -215.904V-235.601H-256.138V-215.904H-236.421ZM-258.329 -191.829H-278.046V-172.132H-258.329V-191.829ZM-199.178 -191.829V-172.132H-157.553V-194.018H-135.645V-235.601H-155.362V-213.715H-177.27V-191.829H-199.178ZM-179.461 -213.715H-199.178V-194.018H-179.461V-213.715ZM-177.27 -215.904H-157.553V-235.601H-177.27V-215.904ZM-155.362 -172.132V-191.829H-135.645V-172.132H-155.362ZM-256.138 -325.333H-258.329V-316.579H-280.237V-294.693H-289V-292.504H-280.237V-248.732H-234.23V-270.618H-212.322V-316.579H-256.138V-325.333ZM-234.23 -272.807H-214.513V-292.504H-234.23V-272.807ZM-214.513 -294.693H-236.421V-272.807H-258.329V-250.921H-278.046V-292.504H-256.138V-314.39H-214.513V-294.693ZM-256.138 -270.618H-236.421V-250.921H-256.138V-270.618ZM-258.329 -314.39H-278.046V-294.693H-258.329V-314.39Z" fill="url(#paint4_linear)" fill-opacity="0.2"/>
<path fill-rule="evenodd" clip-rule="evenodd" d="M-122.5 -327.522V-325.333H-289V-327.522H-258.329V-336.276H-280.237V-358.162H-289V-360.351H-280.237V-404.123H-234.23V-382.237H-212.322V-336.276H-256.138V-327.522H-157.553V-336.276H-201.368V-382.237H-179.461V-404.123H-133.454V-360.351H-124.691V-458.838H-133.454V-415.066H-179.461V-436.952H-201.368V-482.912H-157.553V-491.667H-155.362V-482.912H-133.454V-461.026H-124.691V-491.667H-122.5V-327.522ZM-124.691 -327.522V-358.162H-133.454V-336.276H-155.362V-327.522H-124.691ZM-199.178 -458.838V-439.14H-179.461V-458.838H-199.178ZM-177.27 -439.14H-155.362V-417.254H-135.645V-458.838H-157.553V-480.724H-199.178V-461.026H-177.27V-439.14ZM-177.27 -436.952V-417.254H-157.553V-436.952H-177.27ZM-155.362 -461.026H-135.645V-480.724H-155.362V-461.026ZM-214.513 -360.351V-380.048H-234.23V-360.351H-214.513ZM-236.421 -380.048H-258.329V-401.934H-278.046V-360.351H-256.138V-338.465H-214.513V-358.162H-236.421V-380.048ZM-236.421 -382.237V-401.934H-256.138V-382.237H-236.421ZM-258.329 -358.162H-278.046V-338.465H-258.329V-358.162ZM-199.178 -358.162V-338.465H-157.553V-360.351H-135.645V-401.934H-155.362V-380.048H-177.27V-358.162H-199.178ZM-179.461 -380.048H-199.178V-360.351H-179.461V-380.048ZM-177.27 -382.237H-157.553V-401.934H-177.27V-382.237ZM-155.362 -338.465V-358.162H-135.645V-338.465H-155.362ZM-256.138 -491.667H-258.329V-482.912H-280.237V-461.026H-289V-458.838H-280.237V-415.066H-234.23V-436.952H-212.322V-482.912H-256.138V-491.667ZM-234.23 -439.14H-214.513V-458.838H-234.23V-439.14ZM-214.513 -461.026H-236.421V-439.14H-258.329V-417.254H-278.046V-458.838H-256.138V-480.724H-214.513V-461.026ZM-256.138 -436.952H-236.421V-417.254H-256.138V-436.952ZM-258.329 -480.724H-278.046V-461.026H-258.329V-480.724Z" fill="url(#paint5_linear)" fill-opacity="0.2"/>
<path fill-rule="evenodd" clip-rule="evenodd" d="M-122.5 -493.855V-491.667H-289V-493.855H-258.329V-502.61H-280.237V-524.496H-289V-526.684H-280.237V-570.456H-234.23V-548.57H-212.322V-502.61H-256.138V-493.855H-157.553V-502.61H-201.368V-548.57H-179.461V-570.456H-133.454V-526.684H-124.691V-625.171H-133.454V-581.399H-179.461V-603.285H-201.368V-649.246H-157.553V-658H-155.362V-649.246H-133.454V-627.36H-124.691V-658H-122.5V-493.855ZM-124.691 -493.855V-524.496H-133.454V-502.61H-155.362V-493.855H-124.691ZM-199.178 -625.171V-605.474H-179.461V-625.171H-199.178ZM-177.27 -605.474H-155.362V-583.588H-135.645V-625.171H-157.553V-647.057H-199.178V-627.36H-177.27V-605.474ZM-177.27 -603.285V-583.588H-157.553V-603.285H-177.27ZM-155.362 -627.36H-135.645V-647.057H-155.362V-627.36ZM-214.513 -526.684V-546.382H-234.23V-526.684H-214.513ZM-236.421 -546.382H-258.329V-568.268H-278.046V-526.684H-256.138V-504.798H-214.513V-524.496H-236.421V-546.382ZM-236.421 -548.57V-568.268H-256.138V-548.57H-236.421ZM-258.329 -524.496H-278.046V-504.798H-258.329V-524.496ZM-199.178 -524.496V-504.798H-157.553V-526.684H-135.645V-568.268H-155.362V-546.382H-177.27V-524.496H-199.178ZM-179.461 -546.382H-199.178V-526.684H-179.461V-546.382ZM-177.27 -548.57H-157.553V-568.268H-177.27V-548.57ZM-155.362 -504.798V-524.496H-135.645V-504.798H-155.362ZM-256.138 -658H-258.329V-649.246H-280.237V-627.36H-289V-625.171H-280.237V-581.399H-234.23V-603.285H-212.322V-649.246H-256.138V-658ZM-234.23 -605.474H-214.513V-625.171H-234.23V-605.474ZM-214.513 -627.36H-236.421V-605.474H-258.329V-583.588H-278.046V-625.171H-256.138V-647.057H-214.513V-627.36ZM-256.138 -603.285H-236.421V-583.588H-256.138V-603.285ZM-258.329 -647.057H-278.046V-627.36H-258.329V-647.057Z" fill="url(#paint6_linear)" fill-opacity="0.2"/>
<path fill-rule="evenodd" clip-rule="evenodd" d="M210.5 337.811V340H44V337.811H74.6711V329.057H52.7631V307.171H44V304.983H52.7631V261.211H98.7697V283.096H120.678V329.057H76.8618V337.811H175.447V329.057H131.632V283.096H153.539V261.211H199.546V304.983H208.309V206.496H199.546V250.268H153.539V228.382H131.632V182.421H175.447V173.667H177.638V182.421H199.546V204.307H208.309V173.667H210.5V337.811ZM208.309 337.811V307.171H199.546V329.057H177.638V337.811H208.309ZM133.822 206.496V226.193H153.539V206.496H133.822ZM155.73 226.193H177.638V248.079H197.355V206.496H175.447V184.61H133.822V204.307H155.73V226.193ZM155.73 228.382V248.079H175.447V228.382H155.73ZM177.638 204.307H197.355V184.61H177.638V204.307ZM118.487 304.983V285.285H98.7697V304.983H118.487ZM96.579 285.285H74.6711V263.399H54.954V304.983H76.8618V326.868H118.487V307.171H96.579V285.285ZM96.579 283.096V263.399H76.8618V283.096H96.579ZM74.6711 307.171H54.954V326.868H74.6711V307.171ZM133.822 307.171V326.868H175.447V304.983H197.355V263.399H177.638V285.285H155.73V307.171H133.822ZM153.539 285.285H133.822V304.983H153.539V285.285ZM155.73 283.096H175.447V263.399H155.73V283.096ZM177.638 326.868V307.171H197.355V326.868H177.638ZM76.8618 173.667H74.6711V182.421H52.7631V204.307H44V206.496H52.7631V250.268H98.7697V228.382H120.678V182.421H76.8618V173.667ZM98.7697 226.193H118.487V206.496H98.7697V226.193ZM118.487 204.307H96.579V226.193H74.6711V248.079H54.954V206.496H76.8618V184.61H118.487V204.307ZM76.8618 228.382H96.579V248.079H76.8618V228.382ZM74.6711 184.61H54.954V204.307H74.6711V184.61Z" fill="url(#paint7_linear)" fill-opacity="0.2"/>
<path fill-rule="evenodd" clip-rule="evenodd" d="M377 340H210.5V337.811H241.171V329.057H219.263V307.171H210.5V304.983H219.263V261.211H265.27V283.096H287.178V329.057H243.362V337.811H341.947V329.057H298.132V283.096H320.039V261.211H366.046V304.983H374.809V206.496H366.046V250.268H320.039V228.382H298.132V182.421H341.947V173.667H344.138V182.421H366.046V204.307H374.809V173.667H377V340ZM374.809 337.811V307.171H366.046V329.057H344.138V337.811H374.809ZM300.322 206.496V226.193H320.039V206.496H300.322ZM322.23 226.193H344.138V248.079H363.855V206.496H341.947V184.61H300.322V204.307H322.23V226.193ZM322.23 228.382V248.079H341.947V228.382H322.23ZM344.138 204.307H363.855V184.61H344.138V204.307ZM284.987 304.983V285.285H265.27V304.983H284.987ZM263.079 285.285H241.171V263.399H221.454V304.983H243.362V326.868H284.987V307.171H263.079V285.285ZM263.079 283.096V263.399H243.362V283.096H263.079ZM241.171 307.171H221.454V326.868H241.171V307.171ZM300.322 307.171V326.868H341.947V304.983H363.855V263.399H344.138V285.285H322.23V307.171H300.322ZM320.039 285.285H300.322V304.983H320.039V285.285ZM322.23 283.096H341.947V263.399H322.23V283.096ZM344.138 326.868V307.171H363.855V326.868H344.138ZM243.362 173.667H241.171V182.421H219.263V204.307H210.5V206.496H219.263V250.268H265.27V228.382H287.178V182.421H243.362V173.667ZM265.27 226.193H284.987V206.496H265.27V226.193ZM284.987 204.307H263.079V226.193H241.171V248.079H221.454V206.496H243.362V184.61H284.987V204.307ZM243.362 228.382H263.079V248.079H243.362V228.382ZM241.171 184.61H221.454V204.307H241.171V184.61Z" fill="url(#paint8_linear)" fill-opacity="0.2"/>
<path fill-rule="evenodd" clip-rule="evenodd" d="M377 173.667H210.5V171.478H241.171V162.724H219.263V140.838H210.5V138.649H219.263V94.8772H265.27V116.763H287.178V162.724H243.362V171.478H341.947V162.724H298.132V116.763H320.039V94.8772H366.046V138.649H374.809V40.1623H366.046V83.9342H320.039V62.0482H298.132V16.0878H341.947V7.33333H344.138V16.0878H366.046V37.9736H374.809V7.33333H377V173.667ZM374.809 171.478V140.838H366.046V162.724H344.138V171.478H374.809ZM300.322 40.1623V59.8596H320.039V40.1623H300.322ZM322.23 59.8596H344.138V81.7456H363.855V40.1623H341.947V18.2763H300.322V37.9736H322.23V59.8596ZM322.23 62.0482V81.7456H341.947V62.0482H322.23ZM344.138 37.9736H363.855V18.2763H344.138V37.9736ZM284.987 138.649V118.952H265.27V138.649H284.987ZM263.079 118.952H241.171V97.0658H221.454V138.649H243.362V160.535H284.987V140.838H263.079V118.952ZM263.079 116.763V97.0658H243.362V116.763H263.079ZM241.171 140.838H221.454V160.535H241.171V140.838ZM300.322 140.838V160.535H341.947V138.649H363.855V97.0658H344.138V118.952H322.23V140.838H300.322ZM320.039 118.952H300.322V138.649H320.039V118.952ZM322.23 116.763H341.947V97.0658H322.23V116.763ZM344.138 160.535V140.838H363.855V160.535H344.138ZM243.362 7.33333H241.171V16.0878H219.263V37.9736H210.5V40.1623H219.263V83.9342H265.27V62.0482H287.178V16.0878H243.362V7.33333ZM265.27 59.8596H284.987V40.1623H265.27V59.8596ZM284.987 37.9736H263.079V59.8596H241.171V81.7456H221.454V40.1623H243.362V18.2763H284.987V37.9736ZM243.362 62.0482H263.079V81.7456H243.362V62.0482ZM241.171 18.2763H221.454V37.9736H241.171V18.2763Z" fill="url(#paint9_linear)" fill-opacity="0.2"/>
<path fill-rule="evenodd" clip-rule="evenodd" d="M377 7.33333H210.5V5.14473H241.171V-3.60964H219.263V-25.4956H210.5V-27.6842H219.263V-71.4562H265.27V-49.5702H287.178V-3.60964H243.362V5.14473H341.947V-3.60964H298.132V-49.5702H320.039V-71.4562H366.046V-27.6842H374.809V-126.171H366.046V-82.3991H320.039V-104.285H298.132V-150.246H341.947V-159H344.138V-150.246H366.046V-128.36H374.809V-159H377V7.33333ZM374.809 5.14473V-25.4956H366.046V-3.60964H344.138V5.14473H374.809ZM300.322 -126.171V-106.474H320.039V-126.171H300.322ZM322.23 -106.474H344.138V-84.5877H363.855V-126.171H341.947V-148.057H300.322V-128.36H322.23V-106.474ZM322.23 -104.285V-84.5877H341.947V-104.285H322.23ZM344.138 -128.36H363.855V-148.057H344.138V-128.36ZM284.987 -27.6842V-47.3816H265.27V-27.6842H284.987ZM263.079 -47.3816H241.171V-69.2675H221.454V-27.6842H243.362V-5.79824H284.987V-25.4956H263.079V-47.3816ZM263.079 -49.5702V-69.2675H243.362V-49.5702H263.079ZM241.171 -25.4956H221.454V-5.79824H241.171V-25.4956ZM300.322 -25.4956V-5.79824H341.947V-27.6842H363.855V-69.2675H344.138V-47.3816H322.23V-25.4956H300.322ZM320.039 -47.3816H300.322V-27.6842H320.039V-47.3816ZM322.23 -49.5702H341.947V-69.2675H322.23V-49.5702ZM344.138 -5.79824V-25.4956H363.855V-5.79824H344.138ZM243.362 -159H241.171V-150.246H219.263V-128.36H210.5V-126.171H219.263V-82.3991H265.27V-104.285H287.178V-150.246H243.362V-159ZM265.27 -106.474H284.987V-126.171H265.27V-106.474ZM284.987 -128.36H263.079V-106.474H241.171V-84.5877H221.454V-126.171H243.362V-148.057H284.987V-128.36ZM243.362 -104.285H263.079V-84.5877H243.362V-104.285ZM241.171 -148.057H221.454V-128.36H241.171V-148.057Z" fill="url(#paint10_linear)" fill-opacity="0.2"/>
<path fill-rule="evenodd" clip-rule="evenodd" d="M377 -159H210.5V-161.189H241.171V-169.943H219.263V-191.829H210.5V-194.018H219.263V-237.79H265.27V-215.904H287.178V-169.943H243.362V-161.189H341.947V-169.943H298.132V-215.904H320.039V-237.79H366.046V-194.018H374.809V-292.504H366.046V-248.732H320.039V-270.618H298.132V-316.579H341.947V-325.333H344.138V-316.579H366.046V-294.693H374.809V-325.333H377V-159ZM374.809 -161.189V-191.829H366.046V-169.943H344.138V-161.189H374.809ZM300.322 -292.504V-272.807H320.039V-292.504H300.322ZM322.23 -272.807H344.138V-250.921H363.855V-292.504H341.947V-314.39H300.322V-294.693H322.23V-272.807ZM322.23 -270.618V-250.921H341.947V-270.618H322.23ZM344.138 -294.693H363.855V-314.39H344.138V-294.693ZM284.987 -194.018V-213.715H265.27V-194.018H284.987ZM263.079 -213.715H241.171V-235.601H221.454V-194.018H243.362V-172.132H284.987V-191.829H263.079V-213.715ZM263.079 -215.904V-235.601H243.362V-215.904H263.079ZM241.171 -191.829H221.454V-172.132H241.171V-191.829ZM300.322 -191.829V-172.132H341.947V-194.018H363.855V-235.601H344.138V-213.715H322.23V-191.829H300.322ZM320.039 -213.715H300.322V-194.018H320.039V-213.715ZM322.23 -215.904H341.947V-235.601H322.23V-215.904ZM344.138 -172.132V-191.829H363.855V-172.132H344.138ZM243.362 -325.333H241.171V-316.579H219.263V-294.693H210.5V-292.504H219.263V-248.732H265.27V-270.618H287.178V-316.579H243.362V-325.333ZM265.27 -272.807H284.987V-292.504H265.27V-272.807ZM284.987 -294.693H263.079V-272.807H241.171V-250.921H221.454V-292.504H243.362V-314.39H284.987V-294.693ZM243.362 -270.618H263.079V-250.921H243.362V-270.618ZM241.171 -314.39H221.454V-294.693H241.171V-314.39Z" fill="url(#paint11_linear)" fill-opacity="0.2"/>
<path fill-rule="evenodd" clip-rule="evenodd" d="M377 -325.333H210.5V-327.522H241.171V-336.276H219.263V-358.162H210.5V-360.351H219.263V-404.123H265.27V-382.237H287.178V-336.276H243.362V-327.522H341.947V-336.276H298.132V-382.237H320.039V-404.123H366.046V-360.351H374.809V-458.838H366.046V-415.066H320.039V-436.952H298.132V-482.912H341.947V-491.667H344.138V-482.912H366.046V-461.026H374.809V-491.667H377V-325.333ZM374.809 -327.522V-358.162H366.046V-336.276H344.138V-327.522H374.809ZM300.322 -458.838V-439.14H320.039V-458.838H300.322ZM322.23 -439.14H344.138V-417.254H363.855V-458.838H341.947V-480.724H300.322V-461.026H322.23V-439.14ZM322.23 -436.952V-417.254H341.947V-436.952H322.23ZM344.138 -461.026H363.855V-480.724H344.138V-461.026ZM284.987 -360.351V-380.048H265.27V-360.351H284.987ZM263.079 -380.048H241.171V-401.934H221.454V-360.351H243.362V-338.465H284.987V-358.162H263.079V-380.048ZM263.079 -382.237V-401.934H243.362V-382.237H263.079ZM241.171 -358.162H221.454V-338.465H241.171V-358.162ZM300.322 -358.162V-338.465H341.947V-360.351H363.855V-401.934H344.138V-380.048H322.23V-358.162H300.322ZM320.039 -380.048H300.322V-360.351H320.039V-380.048ZM322.23 -382.237H341.947V-401.934H322.23V-382.237ZM344.138 -338.465V-358.162H363.855V-338.465H344.138ZM243.362 -491.667H241.171V-482.912H219.263V-461.026H210.5V-458.838H219.263V-415.066H265.27V-436.952H287.178V-482.912H243.362V-491.667ZM265.27 -439.14H284.987V-458.838H265.27V-439.14ZM284.987 -461.026H263.079V-439.14H241.171V-417.254H221.454V-458.838H243.362V-480.724H284.987V-461.026ZM243.362 -436.952H263.079V-417.254H243.362V-436.952ZM241.171 -480.724H221.454V-461.026H241.171V-480.724Z" fill="url(#paint12_linear)" fill-opacity="0.2"/>
<path fill-rule="evenodd" clip-rule="evenodd" d="M377 -491.667H210.5V-493.855H241.171V-502.61H219.263V-524.496H210.5V-526.684H219.263V-570.456H265.27V-548.57H287.178V-502.61H243.362V-493.855H341.947V-502.61H298.132V-548.57H320.039V-570.456H366.046V-526.684H374.809V-625.171H366.046V-581.399H320.039V-603.285H298.132V-649.246H341.947V-658H344.138V-649.246H366.046V-627.36H374.809V-658H377V-491.667ZM374.809 -493.855V-524.496H366.046V-502.61H344.138V-493.855H374.809ZM300.322 -625.171V-605.474H320.039V-625.171H300.322ZM322.23 -605.474H344.138V-583.588H363.855V-625.171H341.947V-647.057H300.322V-627.36H322.23V-605.474ZM322.23 -603.285V-583.588H341.947V-603.285H322.23ZM344.138 -627.36H363.855V-647.057H344.138V-627.36ZM284.987 -526.684V-546.382H265.27V-526.684H284.987ZM263.079 -546.382H241.171V-568.268H221.454V-526.684H243.362V-504.798H284.987V-524.496H263.079V-546.382ZM263.079 -548.57V-568.268H243.362V-548.57H263.079ZM241.171 -524.496H221.454V-504.798H241.171V-524.496ZM300.322 -524.496V-504.798H341.947V-526.684H363.855V-568.268H344.138V-546.382H322.23V-524.496H300.322ZM320.039 -546.382H300.322V-526.684H320.039V-546.382ZM322.23 -548.57H341.947V-568.268H322.23V-548.57ZM344.138 -504.798V-524.496H363.855V-504.798H344.138ZM243.362 -658H241.171V-649.246H219.263V-627.36H210.5V-625.171H219.263V-581.399H265.27V-603.285H287.178V-649.246H243.362V-658ZM265.27 -605.474H284.987V-625.171H265.27V-605.474ZM284.987 -627.36H263.079V-605.474H241.171V-583.588H221.454V-625.171H243.362V-647.057H284.987V-627.36ZM243.362 -603.285H263.079V-583.588H243.362V-603.285ZM241.171 -647.057H221.454V-627.36H241.171V-647.057Z" fill="url(#paint13_linear)" fill-opacity="0.2"/>
<path fill-rule="evenodd" clip-rule="evenodd" d="M210.5 171.478V173.667H44V171.478H74.6711V162.724H52.7631V140.838H44V138.649H52.7631V94.8772H98.7697V116.763H120.678V162.724H76.8618V171.478H175.447V162.724H131.632V116.763H153.539V94.8772H199.546V138.649H208.309V40.1623H199.546V83.9342H153.539V62.0482H131.632V16.0878H175.447V7.33333H177.638V16.0878H199.546V37.9736H208.309V7.33333H210.5V171.478ZM208.309 171.478V140.838H199.546V162.724H177.638V171.478H208.309ZM133.822 40.1623V59.8596H153.539V40.1623H133.822ZM155.73 59.8596H177.638V81.7456H197.355V40.1623H175.447V18.2763H133.822V37.9736H155.73V59.8596ZM155.73 62.0482V81.7456H175.447V62.0482H155.73ZM177.638 37.9736H197.355V18.2763H177.638V37.9736ZM118.487 138.649V118.952H98.7697V138.649H118.487ZM96.579 118.952H74.6711V97.0658H54.954V138.649H76.8618V160.535H118.487V140.838H96.579V118.952ZM96.579 116.763V97.0658H76.8618V116.763H96.579ZM74.6711 140.838H54.954V160.535H74.6711V140.838ZM133.822 140.838V160.535H175.447V138.649H197.355V97.0658H177.638V118.952H155.73V140.838H133.822ZM153.539 118.952H133.822V138.649H153.539V118.952ZM155.73 116.763H175.447V97.0658H155.73V116.763ZM177.638 160.535V140.838H197.355V160.535H177.638ZM76.8618 7.33333H74.6711V16.0878H52.7631V37.9736H44V40.1623H52.7631V83.9342H98.7697V62.0482H120.678V16.0878H76.8618V7.33333ZM98.7697 59.8596H118.487V40.1623H98.7697V59.8596ZM118.487 37.9736H96.579V59.8596H74.6711V81.7456H54.954V40.1623H76.8618V18.2763H118.487V37.9736ZM76.8618 62.0482H96.579V81.7456H76.8618V62.0482ZM74.6711 18.2763H54.954V37.9736H74.6711V18.2763Z" fill="url(#paint14_linear)" fill-opacity="0.2"/>
<path fill-rule="evenodd" clip-rule="evenodd" d="M210.5 5.14473V7.33333H44V5.14473H74.6711V-3.60964H52.7631V-25.4956H44V-27.6842H52.7631V-71.4562H98.7697V-49.5702H120.678V-3.60964H76.8618V5.14473H175.447V-3.60964H131.632V-49.5702H153.539V-71.4562H199.546V-27.6842H208.309V-126.171H199.546V-82.3991H153.539V-104.285H131.632V-150.246H175.447V-159H177.638V-150.246H199.546V-128.36H208.309V-159H210.5V5.14473ZM208.309 5.14473V-25.4956H199.546V-3.60964H177.638V5.14473H208.309ZM133.822 -126.171V-106.474H153.539V-126.171H133.822ZM155.73 -106.474H177.638V-84.5877H197.355V-126.171H175.447V-148.057H133.822V-128.36H155.73V-106.474ZM155.73 -104.285V-84.5877H175.447V-104.285H155.73ZM177.638 -128.36H197.355V-148.057H177.638V-128.36ZM118.487 -27.6842V-47.3816H98.7697V-27.6842H118.487ZM96.579 -47.3816H74.6711V-69.2675H54.954V-27.6842H76.8618V-5.79824H118.487V-25.4956H96.579V-47.3816ZM96.579 -49.5702V-69.2675H76.8618V-49.5702H96.579ZM74.6711 -25.4956H54.954V-5.79824H74.6711V-25.4956ZM133.822 -25.4956V-5.79824H175.447V-27.6842H197.355V-69.2675H177.638V-47.3816H155.73V-25.4956H133.822ZM153.539 -47.3816H133.822V-27.6842H153.539V-47.3816ZM155.73 -49.5702H175.447V-69.2675H155.73V-49.5702ZM177.638 -5.79824V-25.4956H197.355V-5.79824H177.638ZM76.8618 -159H74.6711V-150.246H52.7631V-128.36H44V-126.171H52.7631V-82.3991H98.7697V-104.285H120.678V-150.246H76.8618V-159ZM98.7697 -106.474H118.487V-126.171H98.7697V-106.474ZM118.487 -128.36H96.579V-106.474H74.6711V-84.5877H54.954V-126.171H76.8618V-148.057H118.487V-128.36ZM76.8618 -104.285H96.579V-84.5877H76.8618V-104.285ZM74.6711 -148.057H54.954V-128.36H74.6711V-148.057Z" fill="url(#paint15_linear)" fill-opacity="0.2"/>
<path fill-rule="evenodd" clip-rule="evenodd" d="M210.5 -161.189V-159H44V-161.189H74.6711V-169.943H52.7631V-191.829H44V-194.018H52.7631V-237.79H98.7697V-215.904H120.678V-169.943H76.8618V-161.189H175.447V-169.943H131.632V-215.904H153.539V-237.79H199.546V-194.018H208.309V-292.504H199.546V-248.732H153.539V-270.618H131.632V-316.579H175.447V-325.333H177.638V-316.579H199.546V-294.693H208.309V-325.333H210.5V-161.189ZM208.309 -161.189V-191.829H199.546V-169.943H177.638V-161.189H208.309ZM133.822 -292.504V-272.807H153.539V-292.504H133.822ZM155.73 -272.807H177.638V-250.921H197.355V-292.504H175.447V-314.39H133.822V-294.693H155.73V-272.807ZM155.73 -270.618V-250.921H175.447V-270.618H155.73ZM177.638 -294.693H197.355V-314.39H177.638V-294.693ZM118.487 -194.018V-213.715H98.7697V-194.018H118.487ZM96.579 -213.715H74.6711V-235.601H54.954V-194.018H76.8618V-172.132H118.487V-191.829H96.579V-213.715ZM96.579 -215.904V-235.601H76.8618V-215.904H96.579ZM74.6711 -191.829H54.954V-172.132H74.6711V-191.829ZM133.822 -191.829V-172.132H175.447V-194.018H197.355V-235.601H177.638V-213.715H155.73V-191.829H133.822ZM153.539 -213.715H133.822V-194.018H153.539V-213.715ZM155.73 -215.904H175.447V-235.601H155.73V-215.904ZM177.638 -172.132V-191.829H197.355V-172.132H177.638ZM76.8618 -325.333H74.6711V-316.579H52.7631V-294.693H44V-292.504H52.7631V-248.732H98.7697V-270.618H120.678V-316.579H76.8618V-325.333ZM98.7697 -272.807H118.487V-292.504H98.7697V-272.807ZM118.487 -294.693H96.579V-272.807H74.6711V-250.921H54.954V-292.504H76.8618V-314.39H118.487V-294.693ZM76.8618 -270.618H96.579V-250.921H76.8618V-270.618ZM74.6711 -314.39H54.954V-294.693H74.6711V-314.39Z" fill="url(#paint16_linear)" fill-opacity="0.2"/>
<path fill-rule="evenodd" clip-rule="evenodd" d="M210.5 -327.522V-325.333H44V-327.522H74.6711V-336.276H52.7631V-358.162H44V-360.351H52.7631V-404.123H98.7697V-382.237H120.678V-336.276H76.8618V-327.522H175.447V-336.276H131.632V-382.237H153.539V-404.123H199.546V-360.351H208.309V-458.838H199.546V-415.066H153.539V-436.952H131.632V-482.912H175.447V-491.667H177.638V-482.912H199.546V-461.026H208.309V-491.667H210.5V-327.522ZM208.309 -327.522V-358.162H199.546V-336.276H177.638V-327.522H208.309ZM133.822 -458.838V-439.14H153.539V-458.838H133.822ZM155.73 -439.14H177.638V-417.254H197.355V-458.838H175.447V-480.724H133.822V-461.026H155.73V-439.14ZM155.73 -436.952V-417.254H175.447V-436.952H155.73ZM177.638 -461.026H197.355V-480.724H177.638V-461.026ZM118.487 -360.351V-380.048H98.7697V-360.351H118.487ZM96.579 -380.048H74.6711V-401.934H54.954V-360.351H76.8618V-338.465H118.487V-358.162H96.579V-380.048ZM96.579 -382.237V-401.934H76.8618V-382.237H96.579ZM74.6711 -358.162H54.954V-338.465H74.6711V-358.162ZM133.822 -358.162V-338.465H175.447V-360.351H197.355V-401.934H177.638V-380.048H155.73V-358.162H133.822ZM153.539 -380.048H133.822V-360.351H153.539V-380.048ZM155.73 -382.237H175.447V-401.934H155.73V-382.237ZM177.638 -338.465V-358.162H197.355V-338.465H177.638ZM76.8618 -491.667H74.6711V-482.912H52.7631V-461.026H44V-458.838H52.7631V-415.066H98.7697V-436.952H120.678V-482.912H76.8618V-491.667ZM98.7697 -439.14H118.487V-458.838H98.7697V-439.14ZM118.487 -461.026H96.579V-439.14H74.6711V-417.254H54.954V-458.838H76.8618V-480.724H118.487V-461.026ZM76.8618 -436.952H96.579V-417.254H76.8618V-436.952ZM74.6711 -480.724H54.954V-461.026H74.6711V-480.724Z" fill="url(#paint17_linear)" fill-opacity="0.2"/>
<path fill-rule="evenodd" clip-rule="evenodd" d="M210.5 -493.855V-491.667H44V-493.855H74.6711V-502.61H52.7631V-524.496H44V-526.684H52.7631V-570.456H98.7697V-548.57H120.678V-502.61H76.8618V-493.855H175.447V-502.61H131.632V-548.57H153.539V-570.456H199.546V-526.684H208.309V-625.171H199.546V-581.399H153.539V-603.285H131.632V-649.246H175.447V-658H177.638V-649.246H199.546V-627.36H208.309V-658H210.5V-493.855ZM208.309 -493.855V-524.496H199.546V-502.61H177.638V-493.855H208.309ZM133.822 -625.171V-605.474H153.539V-625.171H133.822ZM155.73 -605.474H177.638V-583.588H197.355V-625.171H175.447V-647.057H133.822V-627.36H155.73V-605.474ZM155.73 -603.285V-583.588H175.447V-603.285H155.73ZM177.638 -627.36H197.355V-647.057H177.638V-627.36ZM118.487 -526.684V-546.382H98.7697V-526.684H118.487ZM96.579 -546.382H74.6711V-568.268H54.954V-526.684H76.8618V-504.798H118.487V-524.496H96.579V-546.382ZM96.579 -548.57V-568.268H76.8618V-548.57H96.579ZM74.6711 -524.496H54.954V-504.798H74.6711V-524.496ZM133.822 -524.496V-504.798H175.447V-526.684H197.355V-568.268H177.638V-546.382H155.73V-524.496H133.822ZM153.539 -546.382H133.822V-526.684H153.539V-546.382ZM155.73 -548.57H175.447V-568.268H155.73V-548.57ZM177.638 -504.798V-524.496H197.355V-504.798H177.638ZM76.8618 -658H74.6711V-649.246H52.7631V-627.36H44V-625.171H52.7631V-581.399H98.7697V-603.285H120.678V-649.246H76.8618V-658ZM98.7697 -605.474H118.487V-625.171H98.7697V-605.474ZM118.487 -627.36H96.579V-605.474H74.6711V-583.588H54.954V-625.171H76.8618V-647.057H118.487V-627.36ZM76.8618 -603.285H96.579V-583.588H76.8618V-603.285ZM74.6711 -647.057H54.954V-627.36H74.6711V-647.057Z" fill="url(#paint18_linear)" fill-opacity="0.2"/>
<path fill-rule="evenodd" clip-rule="evenodd" d="M44 171.478V173.667H-122.5V171.478H-91.829V162.724H-113.737V140.838H-122.5V138.649H-113.737V94.8772H-67.7303V116.763H-45.8224V162.724H-89.6382V171.478H8.94736V162.724H-34.8684V116.763H-12.9605V94.8772H33.0461V138.649H41.8092V40.1623H33.0461V83.9342H-12.9605V62.0482H-34.8684V16.0878H8.94736V7.33333H11.1382V16.0878H33.0461V37.9736H41.8092V7.33333H44V171.478ZM41.8092 171.478V140.838H33.0461V162.724H11.1382V171.478H41.8092ZM-32.6776 40.1623V59.8596H-12.9605V40.1623H-32.6776ZM-10.7697 59.8596H11.1382V81.7456H30.8553V40.1623H8.94736V18.2763H-32.6776V37.9736H-10.7697V59.8596ZM-10.7697 62.0482V81.7456H8.94736V62.0482H-10.7697ZM11.1382 37.9736H30.8553V18.2763H11.1382V37.9736ZM-48.0131 138.649V118.952H-67.7303V138.649H-48.0131ZM-69.9211 118.952H-91.829V97.0658H-111.546V138.649H-89.6382V160.535H-48.0131V140.838H-69.9211V118.952ZM-69.9211 116.763V97.0658H-89.6382V116.763H-69.9211ZM-91.829 140.838H-111.546V160.535H-91.829V140.838ZM-32.6776 140.838V160.535H8.94736V138.649H30.8553V97.0658H11.1382V118.952H-10.7697V140.838H-32.6776ZM-12.9605 118.952H-32.6776V138.649H-12.9605V118.952ZM-10.7697 116.763H8.94736V97.0658H-10.7697V116.763ZM11.1382 160.535V140.838H30.8553V160.535H11.1382ZM-89.6382 7.33333H-91.829V16.0878H-113.737V37.9736H-122.5V40.1623H-113.737V83.9342H-67.7303V62.0482H-45.8224V16.0878H-89.6382V7.33333ZM-67.7303 59.8596H-48.0131V40.1623H-67.7303V59.8596ZM-48.0131 37.9736H-69.9211V59.8596H-91.829V81.7456H-111.546V40.1623H-89.6382V18.2763H-48.0131V37.9736ZM-89.6382 62.0482H-69.9211V81.7456H-89.6382V62.0482ZM-91.829 18.2763H-111.546V37.9736H-91.829V18.2763Z" fill="url(#paint19_linear)" fill-opacity="0.2"/>
<path fill-rule="evenodd" clip-rule="evenodd" d="M44 5.14473V7.33333H-122.5V5.14473H-91.829V-3.60964H-113.737V-25.4956H-122.5V-27.6842H-113.737V-71.4562H-67.7303V-49.5702H-45.8224V-3.60964H-89.6382V5.14473H8.94736V-3.60964H-34.8684V-49.5702H-12.9605V-71.4562H33.0461V-27.6842H41.8092V-126.171H33.0461V-82.3991H-12.9605V-104.285H-34.8684V-150.246H8.94736V-159H11.1382V-150.246H33.0461V-128.36H41.8092V-159H44V5.14473ZM41.8092 5.14473V-25.4956H33.0461V-3.60964H11.1382V5.14473H41.8092ZM-32.6776 -126.171V-106.474H-12.9605V-126.171H-32.6776ZM-10.7697 -106.474H11.1382V-84.5877H30.8553V-126.171H8.94736V-148.057H-32.6776V-128.36H-10.7697V-106.474ZM-10.7697 -104.285V-84.5877H8.94736V-104.285H-10.7697ZM11.1382 -128.36H30.8553V-148.057H11.1382V-128.36ZM-48.0131 -27.6842V-47.3816H-67.7303V-27.6842H-48.0131ZM-69.9211 -47.3816H-91.829V-69.2675H-111.546V-27.6842H-89.6382V-5.79824H-48.0131V-25.4956H-69.9211V-47.3816ZM-69.9211 -49.5702V-69.2675H-89.6382V-49.5702H-69.9211ZM-91.829 -25.4956H-111.546V-5.79824H-91.829V-25.4956ZM-32.6776 -25.4956V-5.79824H8.94736V-27.6842H30.8553V-69.2675H11.1382V-47.3816H-10.7697V-25.4956H-32.6776ZM-12.9605 -47.3816H-32.6776V-27.6842H-12.9605V-47.3816ZM-10.7697 -49.5702H8.94736V-69.2675H-10.7697V-49.5702ZM11.1382 -5.79824V-25.4956H30.8553V-5.79824H11.1382ZM-89.6382 -159H-91.829V-150.246H-113.737V-128.36H-122.5V-126.171H-113.737V-82.3991H-67.7303V-104.285H-45.8224V-150.246H-89.6382V-159ZM-67.7303 -106.474H-48.0131V-126.171H-67.7303V-106.474ZM-48.0131 -128.36H-69.9211V-106.474H-91.829V-84.5877H-111.546V-126.171H-89.6382V-148.057H-48.0131V-128.36ZM-89.6382 -104.285H-69.9211V-84.5877H-89.6382V-104.285ZM-91.829 -148.057H-111.546V-128.36H-91.829V-148.057Z" fill="url(#paint20_linear)" fill-opacity="0.2"/>
<path fill-rule="evenodd" clip-rule="evenodd" d="M44 -161.189V-159H-122.5V-161.189H-91.829V-169.943H-113.737V-191.829H-122.5V-194.018H-113.737V-237.79H-67.7303V-215.904H-45.8224V-169.943H-89.6382V-161.189H8.94736V-169.943H-34.8684V-215.904H-12.9605V-237.79H33.0461V-194.018H41.8092V-292.504H33.0461V-248.732H-12.9605V-270.618H-34.8684V-316.579H8.94736V-325.333H11.1382V-316.579H33.0461V-294.693H41.8092V-325.333H44V-161.189ZM41.8092 -161.189V-191.829H33.0461V-169.943H11.1382V-161.189H41.8092ZM-32.6776 -292.504V-272.807H-12.9605V-292.504H-32.6776ZM-10.7697 -272.807H11.1382V-250.921H30.8553V-292.504H8.94736V-314.39H-32.6776V-294.693H-10.7697V-272.807ZM-10.7697 -270.618V-250.921H8.94736V-270.618H-10.7697ZM11.1382 -294.693H30.8553V-314.39H11.1382V-294.693ZM-48.0131 -194.018V-213.715H-67.7303V-194.018H-48.0131ZM-69.9211 -213.715H-91.829V-235.601H-111.546V-194.018H-89.6382V-172.132H-48.0131V-191.829H-69.9211V-213.715ZM-69.9211 -215.904V-235.601H-89.6382V-215.904H-69.9211ZM-91.829 -191.829H-111.546V-172.132H-91.829V-191.829ZM-32.6776 -191.829V-172.132H8.94736V-194.018H30.8553V-235.601H11.1382V-213.715H-10.7697V-191.829H-32.6776ZM-12.9605 -213.715H-32.6776V-194.018H-12.9605V-213.715ZM-10.7697 -215.904H8.94736V-235.601H-10.7697V-215.904ZM11.1382 -172.132V-191.829H30.8553V-172.132H11.1382ZM-89.6382 -325.333H-91.829V-316.579H-113.737V-294.693H-122.5V-292.504H-113.737V-248.732H-67.7303V-270.618H-45.8224V-316.579H-89.6382V-325.333ZM-67.7303 -272.807H-48.0131V-292.504H-67.7303V-272.807ZM-48.0131 -294.693H-69.9211V-272.807H-91.829V-250.921H-111.546V-292.504H-89.6382V-314.39H-48.0131V-294.693ZM-89.6382 -270.618H-69.9211V-250.921H-89.6382V-270.618ZM-91.829 -314.39H-111.546V-294.693H-91.829V-314.39Z" fill="url(#paint21_linear)" fill-opacity="0.2"/>
<path fill-rule="evenodd" clip-rule="evenodd" d="M44 -327.522V-325.333H-122.5V-327.522H-91.829V-336.276H-113.737V-358.162H-122.5V-360.351H-113.737V-404.123H-67.7303V-382.237H-45.8224V-336.276H-89.6382V-327.522H8.94736V-336.276H-34.8684V-382.237H-12.9605V-404.123H33.0461V-360.351H41.8092V-458.838H33.0461V-415.066H-12.9605V-436.952H-34.8684V-482.912H8.94736V-491.667H11.1382V-482.912H33.0461V-461.026H41.8092V-491.667H44V-327.522ZM41.8092 -327.522V-358.162H33.0461V-336.276H11.1382V-327.522H41.8092ZM-32.6776 -458.838V-439.14H-12.9605V-458.838H-32.6776ZM-10.7697 -439.14H11.1382V-417.254H30.8553V-458.838H8.94736V-480.724H-32.6776V-461.026H-10.7697V-439.14ZM-10.7697 -436.952V-417.254H8.94736V-436.952H-10.7697ZM11.1382 -461.026H30.8553V-480.724H11.1382V-461.026ZM-48.0131 -360.351V-380.048H-67.7303V-360.351H-48.0131ZM-69.9211 -380.048H-91.829V-401.934H-111.546V-360.351H-89.6382V-338.465H-48.0131V-358.162H-69.9211V-380.048ZM-69.9211 -382.237V-401.934H-89.6382V-382.237H-69.9211ZM-91.829 -358.162H-111.546V-338.465H-91.829V-358.162ZM-32.6776 -358.162V-338.465H8.94736V-360.351H30.8553V-401.934H11.1382V-380.048H-10.7697V-358.162H-32.6776ZM-12.9605 -380.048H-32.6776V-360.351H-12.9605V-380.048ZM-10.7697 -382.237H8.94736V-401.934H-10.7697V-382.237ZM11.1382 -338.465V-358.162H30.8553V-338.465H11.1382ZM-89.6382 -491.667H-91.829V-482.912H-113.737V-461.026H-122.5V-458.838H-113.737V-415.066H-67.7303V-436.952H-45.8224V-482.912H-89.6382V-491.667ZM-67.7303 -439.14H-48.0131V-458.838H-67.7303V-439.14ZM-48.0131 -461.026H-69.9211V-439.14H-91.829V-417.254H-111.546V-458.838H-89.6382V-480.724H-48.0131V-461.026ZM-89.6382 -436.952H-69.9211V-417.254H-89.6382V-436.952ZM-91.829 -480.724H-111.546V-461.026H-91.829V-480.724Z" fill="url(#paint22_linear)" fill-opacity="0.2"/>
<path fill-rule="evenodd" clip-rule="evenodd" d="M44 -493.855V-491.667H-122.5V-493.855H-91.829V-502.61H-113.737V-524.496H-122.5V-526.684H-113.737V-570.456H-67.7303V-548.57H-45.8224V-502.61H-89.6382V-493.855H8.94736V-502.61H-34.8684V-548.57H-12.9605V-570.456H33.0461V-526.684H41.8092V-625.171H33.0461V-581.399H-12.9605V-603.285H-34.8684V-649.246H8.94736V-658H11.1382V-649.246H33.0461V-627.36H41.8092V-658H44V-493.855ZM41.8092 -493.855V-524.496H33.0461V-502.61H11.1382V-493.855H41.8092ZM-32.6776 -625.171V-605.474H-12.9605V-625.171H-32.6776ZM-10.7697 -605.474H11.1382V-583.588H30.8553V-625.171H8.94736V-647.057H-32.6776V-627.36H-10.7697V-605.474ZM-10.7697 -603.285V-583.588H8.94736V-603.285H-10.7697ZM11.1382 -627.36H30.8553V-647.057H11.1382V-627.36ZM-48.0131 -526.684V-546.382H-67.7303V-526.684H-48.0131ZM-69.9211 -546.382H-91.829V-568.268H-111.546V-526.684H-89.6382V-504.798H-48.0131V-524.496H-69.9211V-546.382ZM-69.9211 -548.57V-568.268H-89.6382V-548.57H-69.9211ZM-91.829 -524.496H-111.546V-504.798H-91.829V-524.496ZM-32.6776 -524.496V-504.798H8.94736V-526.684H30.8553V-568.268H11.1382V-546.382H-10.7697V-524.496H-32.6776ZM-12.9605 -546.382H-32.6776V-526.684H-12.9605V-546.382ZM-10.7697 -548.57H8.94736V-568.268H-10.7697V-548.57ZM11.1382 -504.798V-524.496H30.8553V-504.798H11.1382ZM-89.6382 -658H-91.829V-649.246H-113.737V-627.36H-122.5V-625.171H-113.737V-581.399H-67.7303V-603.285H-45.8224V-649.246H-89.6382V-658ZM-67.7303 -605.474H-48.0131V-625.171H-67.7303V-605.474ZM-48.0131 -627.36H-69.9211V-605.474H-91.829V-583.588H-111.546V-625.171H-89.6382V-647.057H-48.0131V-627.36ZM-89.6382 -603.285H-69.9211V-583.588H-89.6382V-603.285ZM-91.829 -647.057H-111.546V-627.36H-91.829V-647.057Z" fill="url(#paint23_linear)" fill-opacity="0.2"/>
</g>
<defs>
<linearGradient id="paint0_linear" x1="44" y1="-658" x2="44" y2="340" gradientUnits="userSpaceOnUse">
<stop offset="0.677218" stop-color="#7C84A0" stop-opacity="0"/>
<stop offset="1" stop-color="#C2CCED" stop-opacity="0.48"/>
</linearGradient>
<linearGradient id="paint1_linear" x1="44" y1="-658" x2="44" y2="340" gradientUnits="userSpaceOnUse">
<stop offset="0.677218" stop-color="#7C84A0" stop-opacity="0"/>
<stop offset="1" stop-color="#C2CCED" stop-opacity="0.48"/>
</linearGradient>
<linearGradient id="paint2_linear" x1="44" y1="-658" x2="44" y2="340" gradientUnits="userSpaceOnUse">
<stop offset="0.677218" stop-color="#7C84A0" stop-opacity="0"/>
<stop offset="1" stop-color="#C2CCED" stop-opacity="0.48"/>
</linearGradient>
<linearGradient id="paint3_linear" x1="44" y1="-658" x2="44" y2="340" gradientUnits="userSpaceOnUse">
<stop offset="0.677218" stop-color="#7C84A0" stop-opacity="0"/>
<stop offset="1" stop-color="#C2CCED" stop-opacity="0.48"/>
</linearGradient>
<linearGradient id="paint4_linear" x1="44" y1="-658" x2="44" y2="340" gradientUnits="userSpaceOnUse">
<stop offset="0.677218" stop-color="#7C84A0" stop-opacity="0"/>
<stop offset="1" stop-color="#C2CCED" stop-opacity="0.48"/>
</linearGradient>
<linearGradient id="paint5_linear" x1="44" y1="-658" x2="44" y2="340" gradientUnits="userSpaceOnUse">
<stop offset="0.677218" stop-color="#7C84A0" stop-opacity="0"/>
<stop offset="1" stop-color="#C2CCED" stop-opacity="0.48"/>
</linearGradient>
<linearGradient id="paint6_linear" x1="44" y1="-658" x2="44" y2="340" gradientUnits="userSpaceOnUse">
<stop offset="0.677218" stop-color="#7C84A0" stop-opacity="0"/>
<stop offset="1" stop-color="#C2CCED" stop-opacity="0.48"/>
</linearGradient>
<linearGradient id="paint7_linear" x1="44" y1="-658" x2="44" y2="340" gradientUnits="userSpaceOnUse">
<stop offset="0.677218" stop-color="#7C84A0" stop-opacity="0"/>
<stop offset="1" stop-color="#C2CCED" stop-opacity="0.48"/>
</linearGradient>
<linearGradient id="paint8_linear" x1="44" y1="-658" x2="44" y2="340" gradientUnits="userSpaceOnUse">
<stop offset="0.677218" stop-color="#7C84A0" stop-opacity="0"/>
<stop offset="1" stop-color="#C2CCED" stop-opacity="0.48"/>
</linearGradient>
<linearGradient id="paint9_linear" x1="44" y1="-658" x2="44" y2="340" gradientUnits="userSpaceOnUse">
<stop offset="0.677218" stop-color="#7C84A0" stop-opacity="0"/>
<stop offset="1" stop-color="#C2CCED" stop-opacity="0.48"/>
</linearGradient>
<linearGradient id="paint10_linear" x1="44" y1="-658" x2="44" y2="340" gradientUnits="userSpaceOnUse">
<stop offset="0.677218" stop-color="#7C84A0" stop-opacity="0"/>
<stop offset="1" stop-color="#C2CCED" stop-opacity="0.48"/>
</linearGradient>
<linearGradient id="paint11_linear" x1="44" y1="-658" x2="44" y2="340" gradientUnits="userSpaceOnUse">
<stop offset="0.677218" stop-color="#7C84A0" stop-opacity="0"/>
<stop offset="1" stop-color="#C2CCED" stop-opacity="0.48"/>
</linearGradient>
<linearGradient id="paint12_linear" x1="44" y1="-658" x2="44" y2="340" gradientUnits="userSpaceOnUse">
<stop offset="0.677218" stop-color="#7C84A0" stop-opacity="0"/>
<stop offset="1" stop-color="#C2CCED" stop-opacity="0.48"/>
</linearGradient>
<linearGradient id="paint13_linear" x1="44" y1="-658" x2="44" y2="340" gradientUnits="userSpaceOnUse">
<stop offset="0.677218" stop-color="#7C84A0" stop-opacity="0"/>
<stop offset="1" stop-color="#C2CCED" stop-opacity="0.48"/>
</linearGradient>
<linearGradient id="paint14_linear" x1="44" y1="-658" x2="44" y2="340" gradientUnits="userSpaceOnUse">
<stop offset="0.677218" stop-color="#7C84A0" stop-opacity="0"/>
<stop offset="1" stop-color="#C2CCED" stop-opacity="0.48"/>
</linearGradient>
<linearGradient id="paint15_linear" x1="44" y1="-658" x2="44" y2="340" gradientUnits="userSpaceOnUse">
<stop offset="0.677218" stop-color="#7C84A0" stop-opacity="0"/>
<stop offset="1" stop-color="#C2CCED" stop-opacity="0.48"/>
</linearGradient>
<linearGradient id="paint16_linear" x1="44" y1="-658" x2="44" y2="340" gradientUnits="userSpaceOnUse">
<stop offset="0.677218" stop-color="#7C84A0" stop-opacity="0"/>
<stop offset="1" stop-color="#C2CCED" stop-opacity="0.48"/>
</linearGradient>
<linearGradient id="paint17_linear" x1="44" y1="-658" x2="44" y2="340" gradientUnits="userSpaceOnUse">
<stop offset="0.677218" stop-color="#7C84A0" stop-opacity="0"/>
<stop offset="1" stop-color="#C2CCED" stop-opacity="0.48"/>
</linearGradient>
<linearGradient id="paint18_linear" x1="44" y1="-658" x2="44" y2="340" gradientUnits="userSpaceOnUse">
<stop offset="0.677218" stop-color="#7C84A0" stop-opacity="0"/>
<stop offset="1" stop-color="#C2CCED" stop-opacity="0.48"/>
</linearGradient>
<linearGradient id="paint19_linear" x1="44" y1="-658" x2="44" y2="340" gradientUnits="userSpaceOnUse">
<stop offset="0.677218" stop-color="#7C84A0" stop-opacity="0"/>
<stop offset="1" stop-color="#C2CCED" stop-opacity="0.48"/>
</linearGradient>
<linearGradient id="paint20_linear" x1="44" y1="-658" x2="44" y2="340" gradientUnits="userSpaceOnUse">
<stop offset="0.677218" stop-color="#7C84A0" stop-opacity="0"/>
<stop offset="1" stop-color="#C2CCED" stop-opacity="0.48"/>
</linearGradient>
<linearGradient id="paint21_linear" x1="44" y1="-658" x2="44" y2="340" gradientUnits="userSpaceOnUse">
<stop offset="0.677218" stop-color="#7C84A0" stop-opacity="0"/>
<stop offset="1" stop-color="#C2CCED" stop-opacity="0.48"/>
</linearGradient>
<linearGradient id="paint22_linear" x1="44" y1="-658" x2="44" y2="340" gradientUnits="userSpaceOnUse">
<stop offset="0.677218" stop-color="#7C84A0" stop-opacity="0"/>
<stop offset="1" stop-color="#C2CCED" stop-opacity="0.48"/>
</linearGradient>
<linearGradient id="paint23_linear" x1="44" y1="-658" x2="44" y2="340" gradientUnits="userSpaceOnUse">
<stop offset="0.677218" stop-color="#7C84A0" stop-opacity="0"/>
<stop offset="1" stop-color="#C2CCED" stop-opacity="0.48"/>
</linearGradient>
</defs>
</svg>
