<svg xmlns="http://www.w3.org/2000/svg" width="24" height="24" fill="none" viewBox="0 0 24 24">
    <path fill="#2C3F64" fill-rule="evenodd" d="M7 10c0-.552.448-1 1-1s1 .448 1 1-.448 1-1 1-1-.448-1-1zm5-1c-.552 0-1 .448-1 1s.448 1 1 1 1-.448 1-1-.448-1-1-1zm4 0c-.552 0-1 .448-1 1s.448 1 1 1 1-.448 1-1-.448-1-1-1zm4 6c0 .551-.449 1-1 1H8.554c-.543 0-1.077.148-1.544.428L4 18.234V5c0-.551.449-1 1-1h14c.551 0 1 .449 1 1v10zM19 2H5C3.346 2 2 3.346 2 5v15c0 .36.194.693.507.87.153.087.323.13.493.13.178 0 .356-.047.515-.143l4.524-2.714c.156-.094.334-.143.515-.143H19c1.654 0 3-1.346 3-3V5c0-1.654-1.346-3-3-3z" clip-rule="evenodd"/>
</svg>
