<svg xmlns="http://www.w3.org/2000/svg" width="24" height="24" fill="none" viewBox="0 0 24 24">
    <path fill="#2C3F64" fill-rule="evenodd" d="M16 13c-.552 0-1-.449-1-1 0-.553.448-1 1-1s1 .447 1 1c0 .551-.448 1-1 1zm-4 0c-.552 0-1-.449-1-1 0-.553.448-1 1-1s1 .447 1 1c0 .551-.448 1-1 1zm-4 0c-.552 0-1-.449-1-1 0-.553.448-1 1-1s1 .447 1 1c0 .551-.448 1-1 1zm11.07-8.072c-2.283-2.284-5.444-3.303-8.673-2.804-4.077.636-7.457 3.92-8.22 7.987-.367 1.958-.156 3.952.61 5.765.099.23.129.446.09.64l-.857 4.287c-.066.328.037.667.273.903.189.19.444.293.707.293.065 0 .13-.006.196-.02l4.283-.856c.246-.047.485.022.644.088 1.814.767 3.808.977 5.765.611 4.067-.763 7.35-4.143 7.987-8.22.503-3.228-.52-6.389-2.804-8.674z" clip-rule="evenodd"/>
</svg>
