<svg xmlns="http://www.w3.org/2000/svg" width="20" height="20" fill="none" viewBox="0 0 20 20">
    <path fill="#516180" fill-rule="evenodd" d="M10 5.833c.92 0 1.666-.746 1.666-1.666 0-.92-.746-1.667-1.666-1.667-.92 0-1.667.747-1.667 1.667S9.08 5.833 10 5.833zm0 2.5c-.92 0-1.667.747-1.667 1.667S9.08 11.667 10 11.667s1.666-.747 1.666-1.667S10.92 8.333 10 8.333zm-1.667 7.5c0-.92.747-1.666 1.667-1.666s1.666.746 1.666 1.666c0 .92-.746 1.667-1.666 1.667-.92 0-1.667-.747-1.667-1.667z" clip-rule="evenodd"/>
</svg>
