<svg xmlns="http://www.w3.org/2000/svg" width="24" height="24" fill="none" viewBox="0 0 24 24">
    <path fill="#2C3F64" fill-rule="evenodd" d="M12 14H9c-.552 0-1-.448-1-1s.448-1 1-1h3c.552 0 1 .448 1 1s-.448 1-1 1zm-4 3c0-.552.448-1 1-1h6c.553 0 1 .448 1 1s-.447 1-1 1H9c-.552 0-1-.448-1-1zm9.445 3H6.555C6.25 20 6 19.776 6 19.5v-15c0-.276.25-.5.555-.5h5.446v3.15C12 8.722 13.216 10 14.713 10H18v9.5c0 .276-.248.5-.555.5zM14 4.978L16.742 8h-2.028C14.32 8 14 7.619 14 7.15V4.978zm5.74 3.35l-5.444-6c-.19-.209-.459-.328-.742-.328h-7C5.146 2 4 3.122 4 4.5v15C4 20.878 5.146 22 6.555 22h10.89C18.854 22 20 20.878 20 19.5V9c0-.249-.093-.488-.26-.672z" clip-rule="evenodd"/>
</svg>
