<svg xmlns="http://www.w3.org/2000/svg" width="42" height="42" fill="none" viewBox="0 0 42 42">
    <path fill="#2C3F64" fill-rule="evenodd" d="M19.25 33.25c-.966 0-1.75-.784-1.75-1.75s.784-1.75 1.75-1.75S21 30.534 21 31.5s-.784 1.75-1.75 1.75m17.5-3.5H24.176c-.724-2.032-2.647-3.5-4.926-3.5-2.279 0-4.202 1.468-4.926 3.5H5.25c-.968 0-1.75.782-1.75 1.75s.782 1.75 1.75 1.75h9.074c.724 2.032 2.647 3.5 4.926 3.5 2.279 0 4.202-1.468 4.926-3.5H36.75c.968 0 1.75-.782 1.75-1.75s-.782-1.75-1.75-1.75m-3.5-7c-.966 0-1.75-.784-1.75-1.75s.784-1.75 1.75-1.75S35 20.034 35 21s-.784 1.75-1.75 1.75m0-7c-2.279 0-4.202 1.468-4.926 3.5H5.25c-.968 0-1.75.782-1.75 1.75s.782 1.75 1.75 1.75h23.074c.724 2.032 2.647 3.5 4.926 3.5 2.895 0 5.25-2.355 5.25-5.25s-2.355-5.25-5.25-5.25m-21-7c.966 0 1.75.784 1.75 1.75s-.784 1.75-1.75 1.75-1.75-.784-1.75-1.75.784-1.75 1.75-1.75m-7 3.5h2.074c.724 2.032 2.648 3.5 4.926 3.5s4.202-1.468 4.926-3.5H36.75c.968 0 1.75-.782 1.75-1.75s-.782-1.75-1.75-1.75H17.176c-.724-2.032-2.647-3.5-4.926-3.5-2.278 0-4.202 1.468-4.926 3.5H5.25c-.968 0-1.75.782-1.75 1.75s.782 1.75 1.75 1.75" clip-rule="evenodd"/>
</svg>
