<svg xmlns="http://www.w3.org/2000/svg" width="24" height="24" fill="none" viewBox="0 0 24 24">
    <path fill="#516180" fill-rule="evenodd" d="M16.019 10.679l-2.695-2.695 1.948-1.95 2.694 2.695-1.947 1.95zm-6.94 6.946l-2.976.27.264-2.955 5.617-5.617 2.696 2.696-5.6 5.606zM19.405 7.338l-.001-.001-2.738-2.738c-.741-.74-2.014-.774-2.716-.07l-8.996 8.997c-.326.325-.528.757-.57 1.214l-.38 4.17c-.025.295.08.587.29.797.189.189.444.293.707.293.03 0 .06-.001.09-.004l4.17-.38c.459-.041.89-.242 1.215-.567l8.997-8.997c.728-.73.697-1.948-.068-2.714z" clip-rule="evenodd"/>
</svg>
