<svg xmlns="http://www.w3.org/2000/svg" width="16" height="16" fill="none" viewBox="0 0 16 16">
    <path fill="#516180" fill-rule="evenodd" d="M12 6.667C12 6.299 11.7 6 11.333 6c-.368 0-.667.3-.667.667 0 .367.299.666.667.666.368 0 .667-.299.667-.666zm1.333 0c0 1.102-.897 2-2 2s-2-.898-2-2c0-1.103.897-2 2-2s2 .897 2 2zm-6-2c0-.736-.598-1.334-1.333-1.334-.736 0-1.334.598-1.334 1.334C4.666 5.402 5.264 6 6 6c.735 0 1.333-.598 1.333-1.333zm1.333 0c0 1.47-1.196 2.666-2.666 2.666-1.471 0-2.667-1.196-2.667-2.666C3.333 3.196 4.529 2 6 2c1.47 0 2.666 1.196 2.666 2.667zm.627 5.364c.58-.448 1.293-.698 2.04-.698 1.838 0 3.333 1.496 3.333 3.334 0 .368-.298.666-.666.666-.369 0-.667-.298-.667-.666 0-1.103-.897-2-2-2-.455 0-.888.156-1.237.432.362.664.57 1.426.57 2.234 0 .368-.298.667-.666.667-.369 0-.667-.299-.667-.667C9.333 11.495 7.838 10 6 10s-3.334 1.495-3.334 3.333c0 .368-.298.667-.666.667-.369 0-.667-.299-.667-.667 0-2.573 2.094-4.666 4.667-4.666 1.284 0 2.448.522 3.293 1.364z" clip-rule="evenodd"/>
</svg>
