<svg xmlns="http://www.w3.org/2000/svg" width="42" height="42" fill="none" viewBox="0 0 42 42">
    <path fill="#2C3F64" fill-rule="evenodd" d="M31.5 17.5c0-.964-.784-1.75-1.75-1.75S28 16.536 28 17.5s.784 1.75 1.75 1.75 1.75-.786 1.75-1.75zm3.5 0c0 2.895-2.355 5.25-5.25 5.25s-5.25-2.355-5.25-5.25 2.355-5.25 5.25-5.25S35 14.605 35 17.5zm-15.75-5.25c0-1.93-1.57-3.5-3.5-3.5s-3.5 1.57-3.5 3.5 1.57 3.5 3.5 3.5 3.5-1.57 3.5-3.5zm3.5 0c0 3.86-3.14 7-7 7s-7-3.14-7-7 3.14-7 7-7 7 3.14 7 7zm1.645 14.08c1.52-1.175 3.393-1.83 5.355-1.83 4.825 0 8.75 3.925 8.75 8.75 0 .966-.782 1.75-1.75 1.75S35 34.216 35 33.25c0-2.895-2.355-5.25-5.25-5.25-1.195 0-2.331.41-3.248 1.136C27.454 30.879 28 32.877 28 35c0 .966-.782 1.75-1.75 1.75S24.5 35.966 24.5 35c0-4.825-3.925-8.75-8.75-8.75S7 30.175 7 35c0 .966-.782 1.75-1.75 1.75S3.5 35.966 3.5 35c0-6.755 5.497-12.25 12.25-12.25 3.372 0 6.428 1.37 8.645 3.58z" clip-rule="evenodd"/>
</svg>
