<svg xmlns="http://www.w3.org/2000/svg" width="42" height="42" fill="none" viewBox="0 0 42 42">
    <path fill="#2C3F64" fill-rule="evenodd" d="M24.5 12.25c0-1.93-1.57-3.5-3.5-3.5s-3.5 1.57-3.5 3.5 1.57 3.5 3.5 3.5 3.5-1.57 3.5-3.5zm3.5 0c0 3.86-3.14 7-7 7s-7-3.14-7-7 3.14-7 7-7 7 3.14 7 7zM8.75 35c0-6.755 5.497-12.25 12.25-12.25S33.25 28.245 33.25 35c0 .966-.782 1.75-1.75 1.75s-1.75-.784-1.75-1.75c0-4.825-3.925-8.75-8.75-8.75s-8.75 3.925-8.75 8.75c0 .966-.782 1.75-1.75 1.75S8.75 35.966 8.75 35z" clip-rule="evenodd"/>
</svg>
