<svg xmlns="http://www.w3.org/2000/svg" width="20" height="20" fill="none" viewBox="0 0 20 20">
    <path fill="#AAAEBD" fill-opacity=".72" fill-rule="evenodd" d="M15.833 15.833c0 .46-.374.833-.833.833H5c-.46 0-.833-.373-.833-.833V6.667c0-.46.374-.834.833-.834v.833c0 .92.747 1.667 1.667 1.667h6.666c.92 0 1.667-.747 1.667-1.667v-.833c.46 0 .833.373.833.833v9.167zm-9.166-12.5l6.666.003v3.33H6.667V3.333zM15 4.166v-.833c0-.919-.748-1.667-1.667-1.667H6.667C5.747 1.667 5 2.415 5 3.333v.833c-1.378 0-2.5 1.122-2.5 2.5v9.167c0 1.379 1.122 2.5 2.5 2.5h10c1.378 0 2.5-1.121 2.5-2.5V6.667c0-1.379-1.122-2.5-2.5-2.5z" clip-rule="evenodd"/>
</svg>
