<svg xmlns="http://www.w3.org/2000/svg" width="24" height="24" fill="none" viewBox="0 0 24 24">
    <path fill="#AAAEBD" fill-opacity=".72" fill-rule="evenodd" d="M12 13.666H9.5c-.46 0-.833-.373-.833-.833 0-.46.373-.833.833-.833H12c.46 0 .833.373.833.833 0 .46-.373.833-.833.833zm-3.333 2.5c0-.46.373-.833.833-.833h5c.46 0 .833.373.833.833 0 .46-.372.834-.833.834h-5c-.46 0-.833-.373-.833-.834zm7.87 2.5H7.463c-.255 0-.463-.186-.463-.416V5.75c0-.23.208-.417.463-.417H12v2.625c0 1.31 1.014 2.375 2.262 2.375H17v7.917c0 .23-.207.416-.463.416zm-2.87-12.518l2.285 2.518h-1.69c-.329 0-.595-.317-.595-.708v-1.81zM18.45 8.94l-4.536-5c-.159-.174-.382-.273-.618-.273H7.463c-1.175 0-2.13.934-2.13 2.083v12.5c0 1.148.955 2.083 2.13 2.083h9.074c1.174 0 2.13-.935 2.13-2.083V9.5c0-.208-.078-.407-.217-.56z" clip-rule="evenodd"/>
</svg>
