<svg xmlns="http://www.w3.org/2000/svg" width="24" height="24" fill="none" viewBox="0 0 24 24">
    <path fill="#AAAEBD" fill-opacity=".72" fill-rule="evenodd" d="M11.479 18.666h1.042v-.639c0-.779.48-1.479 1.22-1.785.767-.319 1.604-.162 2.156.393l.45.45.74-.74-.455-.453c-.552-.551-.708-1.388-.397-2.13v-.002l.01-.024c.303-.735 1.004-1.215 1.783-1.215h.638v-1.042h-.638c-.78 0-1.48-.48-1.785-1.22-.32-.767-.163-1.604.392-2.157l.45-.449-.739-.739-.454.454c-.552.552-1.387.708-2.13.398-.76-.314-1.24-1.014-1.24-1.794v-.639h-1.043v.64c0 .779-.48 1.479-1.22 1.784-.766.321-1.604.164-2.156-.392l-.45-.451-.74.74.455.453c.552.552.708 1.389.397 2.131-.313.761-1.014 1.241-1.793 1.241h-.64v1.042h.64c.78 0 1.48.479 1.785 1.22.32.766.163 1.604-.392 2.156l-.45.45.739.739.454-.454c.552-.552 1.387-.708 2.13-.398.76.314 1.24 1.014 1.24 1.793v.64zm1.306 1.667H11.21c-.77 0-1.397-.627-1.397-1.396v-.91c0-.122-.097-.206-.19-.244-.12-.049-.247-.059-.336.027l-.641.642c-.547.545-1.435.547-1.981 0l-1.117-1.116c-.265-.265-.41-.617-.41-.992 0-.374.147-.726.413-.99l.64-.638c.087-.088.078-.216.039-.309-.05-.122-.134-.22-.257-.22H5.07c-.774 0-1.403-.628-1.403-1.401v-1.577c0-.77.627-1.397 1.398-1.397h.908c.123 0 .207-.098.244-.19.05-.12.06-.249-.026-.335l-.643-.642c-.545-.548-.545-1.436 0-1.981l1.117-1.117c.265-.265.616-.41.99-.41h.001c.375 0 .727.146.991.412l.638.64c.087.09.216.08.309.04.122-.05.22-.134.22-.257V5.07c0-.773.628-1.402 1.402-1.402h1.576c.77 0 1.397.626 1.397 1.396v.91c0 .122.097.206.19.244.12.05.248.06.336-.027l.641-.643c.547-.545 1.435-.546 1.981 0l1.118 1.118c.265.264.41.616.409.99 0 .374-.146.727-.412.99l-.64.639c-.088.087-.079.216-.04.308.05.123.134.22.257.22h.903c.774 0 1.402.629 1.402 1.402v1.577c0 .77-.626 1.396-1.397 1.396h-.908c-.123 0-.207.099-.244.19l-.012.028c-.038.092-.048.222.038.308l.643.642c.545.547.545 1.436 0 1.98l-1.117 1.117c-.265.265-.616.41-.99.41h-.001c-.375 0-.727-.145-.991-.411l-.638-.641c-.087-.088-.217-.078-.309-.04-.122.052-.22.135-.22.257v.904c0 .773-.628 1.402-1.402 1.402zM12 10.75c-.69 0-1.25.56-1.25 1.25 0 .689.56 1.25 1.25 1.25s1.25-.561 1.25-1.25c0-.69-.56-1.25-1.25-1.25m0 4.166c-1.608 0-2.917-1.308-2.917-2.916 0-1.608 1.309-2.917 2.917-2.917 1.608 0 2.917 1.309 2.917 2.917 0 1.608-1.309 2.916-2.917 2.916" clip-rule="evenodd"/>
</svg>
