<svg xmlns="http://www.w3.org/2000/svg" width="24" height="24" fill="none" viewBox="0 0 24 24">
    <path fill="#2C3F64" fill-rule="evenodd" d="M18 19c-.552 0-1-.448-1-1s.448-1 1-1 1 .448 1 1-.448 1-1 1zM5 13c-.552 0-1-.448-1-1s.448-1 1-1 1 .448 1 1-.448 1-1 1zm13-8c.552 0 1 .448 1 1s-.448 1-1 1-1-.448-1-1 .448-1 1-1zm0 10c-.817 0-1.557.33-2.099.861l-7.935-3.526C7.979 12.224 8 12.114 8 12c0-.114-.021-.224-.034-.335l7.935-3.526C16.443 8.67 17.183 9 18 9c1.654 0 3-1.346 3-3s-1.346-3-3-3-3 1.346-3 3c0 .114.021.224.034.335L7.099 9.861C6.557 9.33 5.817 9 5 9c-1.654 0-3 1.346-3 3s1.346 3 3 3c.817 0 1.557-.33 2.099-.861l7.935 3.526c-.013.111-.034.221-.034.335 0 1.654 1.346 3 3 3s3-1.346 3-3-1.346-3-3-3z" clip-rule="evenodd"/>
</svg>
