<svg xmlns="http://www.w3.org/2000/svg" width="42" height="42" fill="none" viewBox="0 0 42 42">
    <path fill="#2C3F64" fill-rule="evenodd" d="M21 7.256L8.75 14.148v.254c0 8.295 4.49 15.975 11.721 20.044l.529.298.529-.298c7.23-4.069 11.721-11.75 11.721-20.044v-.254L21 7.256zm0 30.982c-.593 0-1.186-.147-1.713-.444l-.53-.3C10.424 32.81 5.25 23.96 5.25 14.403v-.254c0-1.258.683-2.427 1.782-3.049l12.253-6.891c1.059-.595 2.373-.597 3.428-.002l12.252 6.892c1.102.623 1.785 1.792 1.785 3.05v.254c0 9.558-5.175 18.408-13.506 23.093l-.529.297c-.529.298-1.122.446-1.715.446z" clip-rule="evenodd"/>
</svg>
