<svg xmlns="http://www.w3.org/2000/svg" width="24" height="24" fill="none" viewBox="0 0 24 24">
    <path fill="#AAAEBD" fill-opacity=".72" fill-rule="evenodd" d="M12 15.375c.132 0 .265.032.385.094l3.141 1.642-.597-3.464c-.048-.272.043-.549.241-.741l2.53-2.447-3.502-.51c-.27-.039-.505-.208-.627-.453L12 6.334l-1.572 3.162c-.122.245-.356.414-.627.453l-3.502.51 2.53 2.447c.198.192.289.469.241.74l-.597 3.465 3.14-1.642c.122-.062.254-.094.387-.094m4.635 4.087c-.133 0-.265-.03-.386-.094l-4.25-2.22-4.249 2.22c-.281.147-.621.121-.875-.066-.257-.186-.385-.502-.331-.814l.81-4.69-3.434-3.321c-.229-.221-.31-.553-.213-.855.097-.303.358-.523.673-.569l4.75-.69 2.123-4.271c.282-.567 1.212-.567 1.493 0l2.123 4.271 4.75.69c.315.046.576.266.673.569.098.302.016.634-.213.855l-3.434 3.32.81 4.69c.054.313-.074.629-.33.816-.145.106-.317.16-.49.16" clip-rule="evenodd"/>
</svg>
