<svg xmlns="http://www.w3.org/2000/svg" width="20" height="20" fill="none" viewBox="0 0 20 20">
    <path fill="#516180" fill-rule="evenodd" d="M2.5 3.333h5.834c.458 0 .833.375.833.834 0 .458-.375.833-.833.833H2.5c-.458 0-.833-.375-.833-.833 0-.458.375-.833.833-.833zM5 9.168h3.334c.458 0 .833.375.833.833 0 .459-.375.834-.833.834H5c-.458 0-.833-.375-.833-.834 0-.458.375-.833.833-.833zM8.334 15H6.667c-.458 0-.833.375-.833.834 0 .458.375.833.833.833h1.667c.458 0 .833-.375.833-.834 0-.458-.375-.833-.833-.833zm7.5-1.13l1.087-1.05c.332-.32.86-.31 1.179.02.32.332.31.86-.02 1.18l-2.5 2.413c-.163.155-.371.234-.58.234-.213 0-.426-.081-.589-.245l-2.5-2.5c-.325-.325-.325-.852 0-1.178.325-.325.853-.325 1.179 0l1.077 1.078V6.13L13.08 7.18c-.331.32-.859.31-1.179-.02-.32-.332-.31-.86.02-1.18l2.5-2.413c.329-.314.848-.312 1.169.01l2.5 2.5c.325.326.325.854 0 1.179-.163.163-.376.244-.59.244-.213 0-.426-.08-.589-.244l-1.077-1.078v7.692z" clip-rule="evenodd"/>
</svg>
