<svg xmlns="http://www.w3.org/2000/svg" width="24" height="24" fill="none" viewBox="0 0 24 24">
    <path fill="#2C3F64" fill-rule="evenodd" d="M20.992 6.963c-.002-.072-.023-.14-.042-.21-.015-.057-.022-.116-.047-.17-.023-.051-.062-.093-.096-.141-.042-.061-.08-.122-.134-.172-.009-.01-.013-.021-.023-.03-.036-.03-.08-.041-.119-.066-.06-.04-.119-.08-.187-.105-.067-.024-.133-.03-.202-.04-.048-.007-.09-.03-.142-.03h-5c-.553 0-1 .449-1 1 0 .553.447 1 1 1h2.826l-4.036 4.709-4.276-2.565c-.423-.256-.967-.162-1.283.217l-5 6c-.353.424-.296 1.055.128 1.408.188.156.414.232.64.232.287 0 .571-.122.77-.36l4.451-5.342 4.265 2.56c.42.25.957.163 1.274-.207L19 9.703V12c0 .552.447 1 1 1 .553 0 1-.448 1-1V7c0-.013-.007-.024-.008-.037z" clip-rule="evenodd"/>
</svg>
